<svg width="35" height="35" viewBox="0 0 35 35" fill="none" xmlns="http://www.w3.org/2000/svg">
<path d="M10.3461 21.0769C11.3339 21.0769 12.1346 20.2762 12.1346 19.2885C12.1346 18.3007 11.3339 17.5 10.3461 17.5C9.3584 17.5 8.55768 18.3007 8.55768 19.2885C8.55768 20.2762 9.3584 21.0769 10.3461 21.0769Z" fill="#333333"/>
<path d="M24.0577 21.0769C25.0454 21.0769 25.8461 20.2762 25.8461 19.2885C25.8461 18.3007 25.0454 17.5 24.0577 17.5C23.0699 17.5 22.2692 18.3007 22.2692 19.2885C22.2692 20.2762 23.0699 21.0769 24.0577 21.0769Z" fill="#333333"/>
<path d="M17.4999 21.0769C18.4877 21.0769 19.2884 20.2762 19.2884 19.2885C19.2884 18.3007 18.4877 17.5 17.4999 17.5C16.5122 17.5 15.7115 18.3007 15.7115 19.2885C15.7115 20.2762 16.5122 21.0769 17.4999 21.0769Z" fill="#333333"/>
<path d="M10.3461 27.0385C11.3339 27.0385 12.1346 26.2377 12.1346 25.25C12.1346 24.2623 11.3339 23.4615 10.3461 23.4615C9.3584 23.4615 8.55768 24.2623 8.55768 25.25C8.55768 26.2377 9.3584 27.0385 10.3461 27.0385Z" fill="#333333"/>
<path d="M24.0577 27.0385C25.0454 27.0385 25.8461 26.2377 25.8461 25.25C25.8461 24.2623 25.0454 23.4615 24.0577 23.4615C23.0699 23.4615 22.2692 24.2623 22.2692 25.25C22.2692 26.2377 23.0699 27.0385 24.0577 27.0385Z" fill="#333333"/>
<path d="M17.4999 27.0385C18.4877 27.0385 19.2884 26.2377 19.2884 25.25C19.2884 24.2623 18.4877 23.4615 17.4999 23.4615C16.5122 23.4615 15.7115 24.2623 15.7115 25.25C15.7115 26.2377 16.5122 27.0385 17.4999 27.0385Z" fill="#333333"/>
<path d="M10.2865 33H24.6538C28.9461 33 32.4038 29.5423 32.4038 25.3096V11.4788C32.4038 7.60385 29.5423 4.44423 25.8461 3.84808V3.19231C25.8461 2.53654 25.3096 2 24.6538 2C23.9981 2 23.4615 2.53654 23.4615 3.19231V3.78846H11.5384V3.19231C11.5384 2.53654 11.0019 2 10.3461 2C9.69036 2 9.15382 2.53654 9.15382 3.19231V3.90769C5.45767 4.44423 2.59613 7.66346 2.59613 11.5385V25.3096C2.59613 29.5423 6.05382 33 10.2865 33ZM24.7134 30.6154H10.2865C7.36536 30.6154 4.98075 28.2308 4.98075 25.3096V14.5192H30.0192V25.3096C30.0192 28.2308 27.6346 30.6154 24.7134 30.6154ZM9.15382 6.29231V7.36538C9.15382 8.02115 9.69036 8.55769 10.3461 8.55769C11.0019 8.55769 11.5384 8.02115 11.5384 7.36538V6.17308H23.4615V7.36538C23.4615 8.02115 23.9981 8.55769 24.6538 8.55769C25.3096 8.55769 25.8461 8.02115 25.8461 7.36538V6.29231C28.2307 6.82885 30.0192 8.975 30.0192 11.4788V12.1346H4.98075V11.4788C4.98075 8.975 6.76921 6.82885 9.15382 6.29231Z" fill="#333333"/>
</svg>
