<svg width="35" height="35" viewBox="0 0 35 35" fill="none" xmlns="http://www.w3.org/2000/svg">
<path d="M23.3403 15.3203C23.3403 14.6515 22.7982 14.1094 22.1294 14.1094H9.65674C8.98794 14.1094 8.4458 14.6515 8.4458 15.3203C8.4458 15.9891 8.98794 16.5312 9.65674 16.5312H22.1294C22.7982 16.5312 23.3403 15.9891 23.3403 15.3203Z" fill="#333333"/>
<path d="M9.65674 18.9531C8.98794 18.9531 8.4458 19.4953 8.4458 20.1641C8.4458 20.8329 8.98794 21.375 9.65674 21.375H17.2318C17.9006 21.375 18.4428 20.8329 18.4428 20.1641C18.4428 19.4953 17.9006 18.9531 17.2318 18.9531H9.65674Z" fill="#333333"/>
<path d="M12.5024 30.5781H8.45251C7.11709 30.5781 6.03064 29.4917 6.03064 28.1562V6.84375C6.03064 5.50833 7.11709 4.42188 8.45251 4.42188H23.3403C24.6757 4.42188 25.7622 5.50833 25.7622 6.84375V14.291C25.7622 14.9598 26.3043 15.502 26.9731 15.502C27.6419 15.502 28.1841 14.9598 28.1841 14.291V6.84375C28.1841 4.17291 26.0112 2 23.3403 2H8.45251C5.78167 2 3.60876 4.17291 3.60876 6.84375V28.1562C3.60876 30.8271 5.78167 33 8.45251 33H12.5024C13.1712 33 13.7134 32.4579 13.7134 31.7891C13.7134 31.1203 13.1712 30.5781 12.5024 30.5781Z" fill="#333333"/>
<path d="M30.329 19.5327C28.9125 18.1163 26.6079 18.1162 25.1923 19.5317L18.5441 26.1652C18.4029 26.3061 18.2988 26.4796 18.2408 26.6705L16.7929 31.437C16.6646 31.8597 16.7764 32.3185 17.0848 32.6347C17.3159 32.8715 17.6297 33 17.9517 33C18.0594 33 18.1681 32.9856 18.2749 32.956L23.1625 31.6021C23.3636 31.5464 23.547 31.4396 23.6947 31.2922L30.329 24.6703C31.7454 23.2539 31.7454 20.9492 30.329 19.5327ZM22.2091 29.3531L19.7502 30.0343L20.4698 27.6652L24.9557 23.1892L26.6685 24.9021L22.2091 29.3531ZM28.6174 22.9571L28.3827 23.1912L26.6702 21.4787L26.904 21.2453C27.3761 20.7732 28.1444 20.7732 28.6165 21.2453C29.0887 21.7175 29.0887 22.4857 28.6174 22.9571Z" fill="#333333"/>
<path d="M22.1294 9.26562H9.65674C8.98794 9.26562 8.4458 9.80776 8.4458 10.4766C8.4458 11.1454 8.98794 11.6875 9.65674 11.6875H22.1294C22.7982 11.6875 23.3403 11.1454 23.3403 10.4766C23.3403 9.80776 22.7982 9.26562 22.1294 9.26562Z" fill="#333333"/>
</svg>
