<svg width="35" height="35" viewBox="0 0 35 35" fill="none" xmlns="http://www.w3.org/2000/svg">
<path d="M18.7 29.4444H11.2C9.77 29.4444 8.6 28.2944 8.6 26.8889V8.11111C8.6 6.70556 9.77 5.55556 11.2 5.55556H18.7C19.415 5.55556 20 4.98056 20 4.27778C20 3.575 19.415 3 18.7 3H11.2C8.327 3 6 5.28722 6 8.11111V26.8889C6 29.7128 8.327 32 11.2 32H18.7C19.415 32 20 31.425 20 30.7222C20 30.0194 19.415 29.4444 18.7 29.4444Z" fill="#333333"/>
<path d="M29.6048 16.5371L25.6855 12.4031C25.176 11.8656 24.3529 11.8656 23.8434 12.4031C23.3339 12.9405 23.3339 13.8086 23.8434 14.3461L25.5287 16.1237H13.3064C12.5879 16.1237 12 16.7438 12 17.5017C12 18.2596 12.5879 18.8797 13.3064 18.8797H25.5287L23.8434 20.6574C23.3339 21.1948 23.3339 22.0629 23.8434 22.6004C24.1047 22.876 24.4313 23 24.771 23C25.1107 23 25.4373 22.8622 25.6986 22.6004L29.6179 18.4663C30.1274 17.9289 30.1274 17.0608 29.6179 16.5233L29.6048 16.5371Z" fill="#333333"/>
</svg>
