<svg width="35" height="35" viewBox="0 0 35 35" fill="none" xmlns="http://www.w3.org/2000/svg">
<path d="M34.3032 14.7999C33.9593 14.3113 33.506 13.9152 32.9816 13.6454C32.4572 13.3756 31.8773 13.2399 31.2911 13.25H30.9024V10.7502C30.9025 10.2514 30.8059 9.75759 30.6183 9.29769C30.4306 8.83779 30.1557 8.42104 29.8096 8.07184C29.4635 7.72264 29.0532 7.44802 28.6027 7.26405C28.1521 7.08008 27.6705 6.99046 27.1859 7.00043H19.3156C19.0211 6.99864 18.7353 6.89767 18.5018 6.71295L13.6436 2.8132C12.9786 2.2863 12.163 2.00063 11.3238 2.00075H4.71655C4.23196 1.99077 3.75031 2.0804 3.29979 2.26437C2.84927 2.44834 2.43895 2.72296 2.09285 3.07216C1.74674 3.42135 1.47182 3.8381 1.28417 4.298C1.09651 4.7579 0.999907 5.25171 1 5.75051V28.2491C0.998949 28.941 1.19303 29.6183 1.5587 30.199C1.89478 30.7488 2.36057 31.2021 2.91271 31.5168C3.46485 31.8315 4.08539 31.9973 4.71655 31.9988H27.7932C28.5862 32.0192 29.364 31.7726 30.0085 31.2966C30.653 30.8206 31.1289 30.1412 31.364 29.3615L34.8376 18.1122C35.0048 17.5554 35.0436 16.9661 34.9508 16.3911C34.858 15.8161 34.6363 15.2713 34.3032 14.7999ZM3.42912 5.75051C3.42882 5.57986 3.46248 5.41096 3.52803 5.25421C3.59357 5.09746 3.68961 4.95618 3.81022 4.83907C3.93084 4.72197 4.07348 4.63153 4.22935 4.57331C4.38523 4.5151 4.55103 4.49035 4.71655 4.50059H11.3238C11.6222 4.50057 11.9125 4.60159 12.1497 4.78807L17.0079 8.68782C17.6682 9.21464 18.48 9.50045 19.3156 9.50027H27.1859C27.3514 9.49003 27.5172 9.51478 27.6731 9.573C27.829 9.63121 27.9716 9.72165 28.0922 9.83876C28.2128 9.95586 28.3089 10.0971 28.3744 10.2539C28.44 10.4106 28.4736 10.5795 28.4733 10.7502V13.25H9.04038C8.25353 13.2379 7.484 13.4883 6.8469 13.9637C6.20981 14.439 5.73939 15.1139 5.50602 15.8874L3.42912 22.6744V5.75051ZM32.5785 17.3623L29.1049 28.6116C29.0269 28.8773 28.8652 29.1087 28.6453 29.2694C28.4254 29.4301 28.1598 29.5108 27.8903 29.499H4.81372C4.53979 29.4984 4.27267 29.4111 4.04855 29.249L7.93514 16.6373C8.0131 16.3716 8.17479 16.1402 8.3947 15.9795C8.61461 15.8188 8.88024 15.738 9.14969 15.7499H31.2911C31.4958 15.7484 31.6979 15.7963 31.8814 15.8896C32.0649 15.9829 32.2246 16.1191 32.3478 16.2873C32.4634 16.4365 32.5443 16.6109 32.5843 16.7973C32.6243 16.9836 32.6224 17.1769 32.5785 17.3623Z" fill="#333333"/>
</svg>
