<svg width="35" height="35" viewBox="0 0 35 35" fill="none" xmlns="http://www.w3.org/2000/svg">
<path d="M17.5021 4.11584C10.1222 4.11584 4.11542 10.1206 4.11542 17.5005C4.11542 24.8805 10.1222 30.8872 17.5021 30.8872C24.8821 30.8872 30.8888 24.8805 30.8888 17.5005C30.8888 10.1206 24.8821 4.11584 17.5021 4.11584ZM18.5337 6.2233C24.3148 6.74227 28.8255 11.5813 28.8255 17.5005C28.8255 23.4198 24.3148 28.2588 18.5337 28.7778V6.2233Z" fill="#333333"/>
<path fill-rule="evenodd" clip-rule="evenodd" d="M4 17.5005C4 10.0568 10.0584 4.00037 17.5021 4.00037C24.9458 4.00037 31.0042 10.0568 31.0042 17.5005C31.0042 24.9442 24.9458 31.0026 17.5021 31.0026C10.0584 31.0026 4 24.9442 4 17.5005ZM17.5021 4.2312C10.1859 4.2312 4.23084 10.1843 4.23084 17.5005C4.23084 24.8167 10.1859 30.7718 17.5021 30.7718C24.8183 30.7718 30.7734 24.8167 30.7734 17.5005C30.7734 10.1843 24.8184 4.2312 17.5021 4.2312ZM18.4183 6.097L18.544 6.10829C24.3842 6.63256 28.9409 11.521 28.9409 17.5005C28.9409 23.4799 24.3842 28.3684 18.544 28.8927L18.4183 28.904V6.097ZM18.6491 6.3502V28.6508C24.3107 28.0788 28.7101 23.3165 28.7101 17.5005C28.7101 11.6845 24.3107 6.92221 18.6491 6.3502Z" fill="#333333"/>
</svg>
