<svg width="35" height="35" viewBox="0 0 35 35" fill="none" xmlns="http://www.w3.org/2000/svg">
<path d="M31.3697 26.3261H28.0119C27.466 24.5092 25.7966 23.174 23.8044 23.174C21.8123 23.174 20.1441 24.5092 19.5969 26.3261H3.63036C2.93436 26.3261 2.36951 26.891 2.36951 27.587C2.36951 28.283 2.93436 28.8479 3.63036 28.8479H19.5968C20.1428 30.6648 21.8122 32.0001 23.8044 32.0001C25.7965 32.0001 27.4647 30.6648 28.0119 28.8479H31.3696C32.0669 28.8479 32.6305 28.283 32.6305 27.587C32.6305 26.891 32.0669 26.3261 31.3697 26.3261ZM23.8044 29.4783C22.7617 29.4783 21.9131 28.6298 21.9131 27.587C21.9131 26.5443 22.7617 25.6957 23.8044 25.6957C24.8472 25.6957 25.6957 26.5443 25.6957 27.587C25.6957 28.6298 24.8471 29.4783 23.8044 29.4783Z" fill="#333333" stroke="#333333" stroke-width="0.3"/>
<path d="M31.3697 6.15217H28.0119C27.4647 4.33527 25.7966 3 23.8044 3C21.8123 3 20.1441 4.33527 19.5968 6.15217H3.63036C2.93436 6.15217 2.36951 6.71702 2.36951 7.41303C2.36951 8.10903 2.93436 8.67388 3.63036 8.67388H19.5968C20.1441 10.4908 21.8122 11.8261 23.8044 11.8261C25.7966 11.8261 27.4648 10.4908 28.0119 8.67394H31.3697C32.0669 8.67394 32.6305 8.10909 32.6305 7.41309C32.6305 6.71708 32.0669 6.15217 31.3697 6.15217ZM23.8044 9.30434C22.7617 9.30434 21.9131 8.45579 21.9131 7.41303C21.9131 6.37026 22.7617 5.52171 23.8044 5.52171C24.8472 5.52171 25.6957 6.37026 25.6957 7.41303C25.6957 8.45579 24.8471 9.30434 23.8044 9.30434Z" fill="#333333" stroke="#333333" stroke-width="0.3"/>
<path d="M31.3697 16.2391H15.4032C14.856 14.4222 13.1878 13.0869 11.1957 13.0869C9.20353 13.0869 7.53533 14.4222 6.98815 16.2391H3.63036C2.93436 16.2391 2.36951 16.8039 2.36951 17.4999C2.36951 18.1959 2.93436 18.7608 3.63036 18.7608H6.98809C7.53533 20.5777 9.20347 21.913 11.1956 21.913C13.1878 21.913 14.856 20.5777 15.4031 18.7608H31.3696C32.0669 18.7608 32.6305 18.1959 32.6305 17.4999C32.6305 16.8039 32.0669 16.2391 31.3697 16.2391ZM11.1956 19.3913C10.1529 19.3913 9.3043 18.5427 9.3043 17.4999C9.3043 16.4572 10.1529 15.6086 11.1956 15.6086C12.2384 15.6086 13.0869 16.4572 13.0869 17.4999C13.0869 18.5427 12.2384 19.3913 11.1956 19.3913Z" fill="#333333" stroke="#333333" stroke-width="0.3"/>
</svg>
