<svg width="35" height="35" viewBox="0 0 35 35" fill="none" xmlns="http://www.w3.org/2000/svg">
<path d="M27.7818 7.21818C25.0136 4.45 21.3227 3 17.5 3C13.6773 3 9.98636 4.45 7.21818 7.21818C4.45 9.98636 3 13.6773 3 17.5C3 21.3227 4.45 25.0136 7.21818 27.7818C9.98636 30.55 13.6773 32 17.5 32C21.3227 32 25.0136 30.55 27.7818 27.7818C30.55 25.0136 32 21.3227 32 17.5C32 13.6773 30.55 9.98636 27.7818 7.21818ZM25.9364 25.9364C23.6955 28.1773 20.6636 29.3636 17.5 29.3636C14.3364 29.3636 11.3045 28.1773 9.06364 25.9364C6.82273 23.6955 5.63636 20.6636 5.63636 17.5C5.63636 14.3364 6.82273 11.3045 9.06364 9.06364C11.3045 6.82273 14.3364 5.63636 17.5 5.63636C20.6636 5.63636 23.6955 6.82273 25.9364 9.06364C28.1773 11.3045 29.3636 14.3364 29.3636 17.5C29.3636 20.6636 28.1773 23.6955 25.9364 25.9364ZM23.1682 12.6227L16.1818 19.6091L13.15 16.5773C12.6227 16.05 11.8318 16.05 11.3045 16.5773C10.7773 17.1045 10.7773 17.8955 11.3045 18.4227L15.2591 22.3773C15.5227 22.6409 15.9182 22.7727 16.1818 22.7727C16.4455 22.7727 16.8409 22.6409 17.1045 22.3773L25.0136 14.4682C25.5409 13.9409 25.5409 13.15 25.0136 12.6227C24.4864 12.0955 23.6955 12.0955 23.1682 12.6227Z" fill="#333333"/>
</svg>
