<svg width="35" height="35" viewBox="0 0 35 35" fill="none" xmlns="http://www.w3.org/2000/svg">
<path d="M26.1381 5.84432H23.2802V4.56583C23.2802 4.15219 22.829 3.96419 22.4154 3.96419H20.1968C19.6704 2.46006 18.3543 1.708 16.8502 1.708C15.3626 1.65208 14.0095 2.56421 13.5035 3.96419H11.3225C10.9089 3.96419 10.4952 4.15219 10.4952 4.56583V5.84432H7.63732C5.94375 5.86238 4.55824 7.19837 4.47864 8.89014V30.4367C4.47864 32.0913 5.98276 33.2945 7.63732 33.2945H26.1381C27.7926 33.2945 29.2967 32.0913 29.2967 30.4367V8.89021C29.2171 7.19837 27.8316 5.86238 26.1381 5.84432ZM11.9993 5.46832H14.0675C14.4285 5.42427 14.7185 5.14962 14.782 4.79147C15.0046 3.82168 15.8555 3.12554 16.8502 3.09934C17.8356 3.12921 18.6736 3.82751 18.8807 4.79147C18.9481 5.16199 19.2573 5.44018 19.6328 5.46832H21.7762V8.47657H11.9993V5.46832ZM27.7926 30.4368C27.7926 31.264 26.9653 31.7905 26.1381 31.7905H7.63732C6.81004 31.7905 5.98276 31.264 5.98276 30.4368V8.89021C6.05949 8.02911 6.7729 7.36428 7.63732 7.34851H10.4951V9.26628C10.5349 9.68762 10.8998 10.0028 11.3224 9.98077H22.4153C22.8457 10.0043 23.2221 9.69345 23.2802 9.26628V7.34844H26.138C27.0023 7.36428 27.7158 8.02903 27.7925 8.89014V30.4368H27.7926Z" fill="#333333"/>
<path fill-rule="evenodd" clip-rule="evenodd" d="M16.8591 1.22925C18.4207 1.23208 19.85 1.97611 20.5216 3.48544H22.4154C22.6844 3.48544 22.9917 3.54487 23.2492 3.69935C23.5205 3.86217 23.7588 4.15139 23.7588 4.56569V5.36556H26.1431C28.0903 5.38633 29.6833 6.9224 29.7748 8.86758L29.7753 8.87882V30.4366C29.7753 32.4154 27.9927 33.773 26.138 33.773H7.6373C5.78265 33.773 4 32.4154 4 30.4366V8.87875L4.00053 8.86751C4.09205 6.9224 5.68504 5.38636 7.6322 5.36558L7.6373 5.36553L10.0166 5.36556V4.56569C10.0166 4.16982 10.2265 3.87795 10.4968 3.70596C10.7495 3.54516 11.0529 3.48544 11.3225 3.48544H13.1833C13.8382 2.07269 15.2816 1.17358 16.8591 1.22925ZM16.8322 2.18615C15.5526 2.13805 14.3888 2.92261 13.9536 4.12676L13.8394 4.44268H11.3225C11.1784 4.44268 11.0682 4.47696 11.0107 4.51356C10.9852 4.52977 10.9781 4.54109 10.9773 4.5425C10.9767 4.54339 10.9763 4.5443 10.9758 4.54625C10.9752 4.54826 10.9738 4.55424 10.9738 4.56569V6.3228H7.63994C6.20469 6.33939 5.03025 7.46922 4.95724 8.90171V30.4366C4.95724 31.7668 6.18285 32.8158 7.6373 32.8158H26.138C27.5925 32.8158 28.8181 31.7668 28.8181 30.4366V8.90177C28.7451 7.46921 27.5706 6.33939 26.1354 6.3228H22.8016V4.56569M22.8007 4.55615C22.8007 4.55608 22.8008 4.55626 22.8007 4.55615C22.7994 4.55411 22.7893 4.53977 22.7567 4.52018C22.6851 4.47724 22.56 4.44268 22.4154 4.44268H19.8572L19.7451 4.12216C19.2969 2.84156 18.1864 2.18649 16.8501 2.18649H16.8411L16.8322 2.18615M16.8511 2.6204L16.8646 2.62081C18.0702 2.65735 19.0953 3.51158 19.3486 4.69081L19.3502 4.6982L19.3516 4.70563C19.3792 4.85717 19.5026 4.97202 19.6545 4.98956H22.2548V8.95506H11.5206V4.98956H14.0322C14.1737 4.9628 14.2853 4.85114 14.3107 4.7078L14.3128 4.69595L14.3155 4.68422C14.587 3.50162 15.6245 2.6527 16.8375 2.62075L16.8511 2.6204ZM15.2507 4.88875C15.1455 5.44733 14.6906 5.87433 14.1254 5.94328L14.0965 5.94681H12.4779V7.99782H21.2975V5.94681H19.6148L19.597 5.94547C19.0072 5.90126 18.5211 5.46626 18.4114 4.88575C18.2493 4.14464 17.6066 3.60714 16.8492 3.57808C16.0819 3.60434 15.4269 4.14124 15.2507 4.88875ZM7.6373 6.86976H10.9738V9.23851C10.9974 9.39572 11.1369 9.51103 11.2975 9.50266L11.3099 9.50202H22.4284L22.4414 9.50273C22.6143 9.51218 22.7663 9.39372 22.8015 9.22687V6.86969H26.1467C27.2555 6.89 28.1708 7.74284 28.2693 8.84753L28.2711 8.86872V29.958L28.2712 30.4366C28.2712 31.0266 27.9714 31.497 27.5646 31.8052C27.1641 32.1086 26.6468 32.269 26.138 32.269H7.6373C7.12849 32.269 6.61122 32.1086 6.21078 31.8052C5.8039 31.497 5.50413 31.0266 5.50413 30.4366V8.8688L5.50602 8.8476C5.60444 7.74296 6.51963 6.89006 7.62858 6.86984L7.6373 6.86976ZM27.3139 30.447V8.91302C27.2501 8.3063 26.7448 7.84013 26.1332 7.82693H23.7588V9.29854L23.7544 9.33063C23.6634 10.0002 23.077 10.4887 22.4037 10.4593H11.3334C10.6605 10.4871 10.082 9.98318 10.0186 9.31108L10.0165 9.28866V7.827H7.64201C7.03045 7.84015 6.52515 8.30633 6.46137 8.9131V30.4366C6.46137 30.674 6.57524 30.8804 6.78881 31.0422C7.00883 31.2089 7.31883 31.3117 7.6373 31.3117H26.138C26.4565 31.3117 26.7665 31.2089 26.9865 31.0422C27.197 30.8828 27.3106 30.68 27.3139 30.447Z" fill="#333333"/>
<path d="M14.4973 22.9262C14.2152 22.6289 13.747 22.6121 13.4444 22.8887L11.0378 25.1824L10.0225 24.1295C9.74041 23.8322 9.27214 23.8155 8.96956 24.0919C8.67828 24.3971 8.67828 24.8773 8.96956 25.1824L10.5113 26.7618C10.6447 26.9112 10.8374 26.9938 11.0377 26.9874C11.236 26.9846 11.4253 26.9035 11.5641 26.7618L14.4971 23.9792C14.7879 23.7124 14.8074 23.2604 14.5405 22.9697C14.5269 22.9545 14.5124 22.9401 14.4973 22.9262Z" fill="#333333"/>
<path fill-rule="evenodd" clip-rule="evenodd" d="M14.8329 22.5847C14.3702 22.1099 13.6126 22.0866 13.1215 22.5353L11.052 24.5076L10.3683 23.7985C9.90648 23.3134 9.14135 23.2867 8.64677 23.7386L8.63468 23.7496L8.62338 23.7615C8.15557 24.2516 8.15557 25.0228 8.62338 25.5129L10.1624 27.0895C10.3889 27.3379 10.7124 27.4754 11.0487 27.4659C11.3686 27.4603 11.6736 27.3303 11.8991 27.1037L14.824 24.3288C15.3059 23.8835 15.3377 23.1322 14.8947 22.6477C14.8745 22.6253 14.8538 22.6043 14.8329 22.5847ZM13.7701 23.2394L11.0236 25.8572L9.67528 24.4589C9.57647 24.3548 9.41472 24.3453 9.30461 24.4348C9.20165 24.5548 9.20492 24.7342 9.3144 24.8504L10.8612 26.435L10.8683 26.4429C10.9074 26.4867 10.9638 26.5109 11.0224 26.509L11.031 26.5087C11.103 26.5077 11.1718 26.4783 11.2223 26.4268L11.2284 26.4206L14.1736 23.6264C14.2696 23.5384 14.276 23.3893 14.188 23.2933L14.1849 23.29C14.1824 23.2872 14.179 23.2837 14.1744 23.2795L14.1618 23.268L14.1501 23.2556C14.0484 23.1484 13.8802 23.1416 13.7701 23.2394Z" fill="#333333"/>
<path d="M14.4973 14.7132C14.2152 14.4159 13.747 14.3991 13.4444 14.6757L11.0378 16.9694L10.0225 15.9165C9.74041 15.6192 9.27214 15.6024 8.96956 15.8789C8.67828 16.1841 8.67828 16.6642 8.96956 16.9694L10.5113 18.5488C10.6447 18.6982 10.8374 18.7808 11.0377 18.7744C11.236 18.7716 11.4253 18.6905 11.5641 18.5488L14.4971 15.7661C14.7879 15.4994 14.8074 15.0474 14.5405 14.7567C14.5269 14.7415 14.5124 14.727 14.4973 14.7132Z" fill="#333333"/>
<path fill-rule="evenodd" clip-rule="evenodd" d="M14.8329 14.3716C14.3702 13.8967 13.6126 13.8734 13.1215 14.3222L11.052 16.2945L10.3682 15.5854C9.90652 15.1004 9.14137 15.0734 8.64672 15.5255L8.63466 15.5365L8.62338 15.5483C8.15557 16.0384 8.15557 16.8096 8.62338 17.2997L10.1624 18.8764C10.3889 19.1247 10.7124 19.2623 11.0487 19.2528C11.3686 19.2471 11.6736 19.1171 11.8991 18.8906L14.824 16.1157C15.3059 15.6703 15.3377 14.919 14.8947 14.4346C14.8745 14.4122 14.8538 14.3912 14.8329 14.3716ZM13.7701 15.0263L11.0236 17.644L9.67528 16.2458C9.57641 16.1416 9.41468 16.1322 9.30463 16.2216C9.20165 16.3416 9.20491 16.5211 9.3144 16.6373L10.8612 18.2219L10.8683 18.2298C10.9074 18.2736 10.9638 18.2978 11.0224 18.2959L11.031 18.2956C11.103 18.2946 11.1718 18.2652 11.2223 18.2137L11.2284 18.2074L14.1736 15.4133C14.2696 15.3252 14.276 15.1761 14.188 15.0802L14.1849 15.0768C14.1824 15.0741 14.179 15.0705 14.1744 15.0663L14.1618 15.0548L14.1501 15.0425C14.0484 14.9353 13.8802 14.9284 13.7701 15.0263Z" fill="#333333"/>
<path d="M24.5456 16.3301L17.8449 16.3301C17.4295 16.3301 17.0928 16.6668 17.0928 17.0821C17.0928 17.4975 17.4295 17.8342 17.8449 17.8342L24.5456 17.8342C24.961 17.8342 25.2977 17.4975 25.2977 17.0822C25.2977 16.6668 24.961 16.3301 24.5456 16.3301Z" fill="#333333"/>
<path fill-rule="evenodd" clip-rule="evenodd" d="M16.6143 17.0821C16.6143 16.4024 17.1652 15.8514 17.8449 15.8514L24.5456 15.8515C25.2253 15.8515 25.7763 16.4024 25.7763 17.0821C25.7763 17.7618 25.2253 18.3128 24.5456 18.3128L17.8449 18.3128C17.1652 18.3128 16.6143 17.7618 16.6143 17.0821ZM17.8449 16.8087C17.6939 16.8087 17.5715 16.9311 17.5715 17.0821C17.5715 17.2332 17.6939 17.3556 17.8449 17.3556L24.5456 17.3556C24.6967 17.3556 24.8191 17.2332 24.8191 17.0821C24.8191 16.9311 24.6967 16.8087 24.5456 16.8087L17.8449 16.8087L17.8449 16.3301L17.8449 16.8087Z" fill="#333333"/>
<path d="M24.5456 24.3029L17.8449 24.3029C17.4295 24.3029 17.0928 24.6396 17.0928 25.0549C17.0928 25.4703 17.4295 25.807 17.8449 25.807L24.5456 25.807C24.961 25.807 25.2977 25.4703 25.2977 25.0549C25.2977 24.6396 24.961 24.3029 24.5456 24.3029Z" fill="#333333"/>
<path fill-rule="evenodd" clip-rule="evenodd" d="M16.6143 25.0549C16.6143 24.3752 17.1652 23.8242 17.8449 23.8242L24.5456 23.8242C25.2253 23.8242 25.7763 24.3752 25.7763 25.0549C25.7763 25.7346 25.2253 26.2856 24.5456 26.2856L17.8449 26.2856C17.1652 26.2856 16.6143 25.7346 16.6143 25.0549ZM17.8449 24.7815C17.6939 24.7815 17.5715 24.9039 17.5715 25.0549C17.5715 25.2059 17.6939 25.3283 17.8449 25.3283L24.5456 25.3284C24.6967 25.3284 24.8191 25.206 24.8191 25.0549C24.8191 24.9039 24.6967 24.7815 24.5456 24.7815L17.8449 24.7815L17.8449 24.3028L17.8449 24.7815Z" fill="#333333"/>
</svg>
