<svg width="35" height="35" viewBox="0 0 35 35" fill="none" xmlns="http://www.w3.org/2000/svg">
<path d="M24.304 13.8791C24.8187 13.3643 24.8187 12.5297 24.304 12.0149C23.7892 11.5001 22.9545 11.5001 22.4398 12.0149L15.4773 18.9774L12.5744 15.9838C12.0676 15.4613 11.233 15.4484 10.7104 15.9552C10.1877 16.462 10.1749 17.2966 10.6817 17.8191L14.5164 21.7737C14.7623 22.0272 15.0995 22.1715 15.4526 22.1741C15.8057 22.1769 16.1452 22.0378 16.3948 21.7882L24.304 13.8791Z" fill="#333333"/>
<path fill-rule="evenodd" clip-rule="evenodd" d="M8.27274 3C5.38771 3 3 5.38767 3 8.27273V26.7273C3 29.6124 5.38771 32.0001 8.27274 32.0001H26.7273C29.6123 32.0001 32.0001 29.6124 32.0001 26.7273V8.27273C32.0001 5.38767 29.6123 3 26.7273 3H8.27274ZM5.63637 8.27273C5.63637 6.84372 6.84372 5.63637 8.27274 5.63637H26.7273C28.1564 5.63637 29.3637 6.84372 29.3637 8.27273V26.7273C29.3637 28.1564 28.1564 29.3637 26.7273 29.3637H8.27274C6.84372 29.3637 5.63637 28.1564 5.63637 26.7273V8.27273Z" fill="#333333"/>
</svg>
