<svg width="35" height="35" viewBox="0 0 35 35" fill="none" xmlns="http://www.w3.org/2000/svg">
<path d="M28.1995 2.31262H8.69892C7.76072 2.31363 6.86123 2.68677 6.19782 3.35018C5.53441 4.01359 5.16127 4.91308 5.16026 5.85128V8.00789H4.21105C3.9593 8.00789 3.71787 8.10789 3.53986 8.2859C3.36185 8.46392 3.26184 8.70535 3.26184 8.9571C3.26184 9.20884 3.36185 9.45028 3.53986 9.62829C3.71787 9.8063 3.9593 9.90631 4.21105 9.90631H5.16026V13.7032H4.21105C3.9593 13.7032 3.71787 13.8032 3.53986 13.9812C3.36185 14.1592 3.26184 14.4006 3.26184 14.6524C3.26184 14.9041 3.36185 15.1455 3.53986 15.3236C3.71787 15.5016 3.9593 15.6016 4.21105 15.6016H5.16026V19.3984H4.21105C3.9593 19.3984 3.71787 19.4984 3.53986 19.6764C3.36185 19.8544 3.26184 20.0959 3.26184 20.3476C3.26184 20.5994 3.36185 20.8408 3.53986 21.0188C3.71787 21.1968 3.9593 21.2968 4.21105 21.2968H5.16026V25.0937H4.21105C3.9593 25.0937 3.71787 25.1937 3.53986 25.3717C3.36185 25.5497 3.26184 25.7911 3.26184 26.0429C3.26184 26.2946 3.36185 26.5361 3.53986 26.7141C3.71787 26.8921 3.9593 26.9921 4.21105 26.9921H5.16026V29.1487C5.16127 30.0869 5.53441 30.9864 6.19782 31.6498C6.86123 32.3132 7.76072 32.6864 8.69892 32.6874H28.1995C29.1377 32.6864 30.0372 32.3132 30.7006 31.6498C31.364 30.9864 31.7372 30.0869 31.7382 29.1487V5.85128C31.7372 4.91308 31.364 4.01359 30.7006 3.35018C30.0372 2.68677 29.1377 2.31363 28.1995 2.31262ZM29.8397 29.1487C29.8392 29.5836 29.6663 30.0005 29.3588 30.308C29.0513 30.6155 28.6344 30.7884 28.1995 30.7889H8.69892C8.26406 30.7884 7.84715 30.6155 7.53965 30.308C7.23216 30.0005 7.05919 29.5836 7.05868 29.1487V26.9921H8.00789C8.25964 26.9921 8.50107 26.8921 8.67909 26.7141C8.8571 26.5361 8.9571 26.2946 8.9571 26.0429C8.9571 25.7911 8.8571 25.5497 8.67909 25.3717C8.50107 25.1937 8.25964 25.0937 8.00789 25.0937H7.05868V21.2968H8.00789C8.25964 21.2968 8.50107 21.1968 8.67909 21.0188C8.8571 20.8408 8.9571 20.5994 8.9571 20.3476C8.9571 20.0959 8.8571 19.8544 8.67909 19.6764C8.50107 19.4984 8.25964 19.3984 8.00789 19.3984H7.05868V15.6016H8.00789C8.25964 15.6016 8.50107 15.5016 8.67909 15.3236C8.8571 15.1455 8.9571 14.9041 8.9571 14.6524C8.9571 14.4006 8.8571 14.1592 8.67909 13.9812C8.50107 13.8032 8.25964 13.7032 8.00789 13.7032H7.05868V9.90631H8.00789C8.25964 9.90631 8.50107 9.8063 8.67909 9.62829C8.8571 9.45028 8.9571 9.20884 8.9571 8.9571C8.9571 8.70535 8.8571 8.46392 8.67909 8.2859C8.50107 8.10789 8.25964 8.00789 8.00789 8.00789H7.05868V5.85128C7.05919 5.41642 7.23216 4.99951 7.53965 4.69201C7.84715 4.38452 8.26406 4.21155 8.69892 4.21104H28.1995C28.6344 4.21155 29.0513 4.38452 29.3588 4.69201C29.6663 4.99951 29.8392 5.41642 29.8397 5.85128V29.1487Z" fill="#333333"/>
<path fill-rule="evenodd" clip-rule="evenodd" d="M8.69891 2.05078L28.1995 2.05078C29.207 2.05186 30.1733 2.45259 30.8857 3.16503C31.5982 3.87748 31.9989 4.84346 32 5.85101L32 29.1487C31.9989 30.1563 31.5982 31.1225 30.8857 31.835C30.1733 32.5474 29.2073 32.9481 28.1998 32.9492H8.69891C7.69136 32.9481 6.72511 32.5474 6.01266 31.835C5.30021 31.1225 4.89949 30.1565 4.89841 29.149L4.89841 27.254H4.21105C3.88985 27.254 3.58181 27.1264 3.3547 26.8992C3.12758 26.6721 2.99998 26.3641 2.99998 26.0429C2.99998 25.7217 3.12758 25.4137 3.3547 25.1865C3.58181 24.9594 3.88985 24.8318 4.21105 24.8318H4.89841V21.5587H4.21105C3.88985 21.5587 3.58181 21.4311 3.3547 21.204C3.12758 20.9769 2.99998 20.6688 2.99998 20.3476C2.99998 20.0264 3.12758 19.7184 3.3547 19.4913C3.58181 19.2642 3.88985 19.1366 4.21105 19.1366H4.89841V15.8634H4.21105C3.88985 15.8634 3.58181 15.7358 3.3547 15.5087C3.12758 15.2816 2.99998 14.9736 2.99998 14.6524C2.99998 14.3312 3.12758 14.0231 3.3547 13.796C3.58181 13.5689 3.88985 13.4413 4.21105 13.4413H4.89841V10.1682H4.21105C3.88985 10.1682 3.58181 10.0406 3.3547 9.81346C3.12758 9.58634 2.99998 9.2783 2.99998 8.95711C2.99998 8.63591 3.12758 8.32788 3.3547 8.10076C3.58181 7.87364 3.88985 7.74605 4.21105 7.74605H4.89841V5.85129C4.89948 4.84374 5.30021 3.87748 6.01266 3.16503C6.72511 2.45259 7.69136 2.05186 8.69891 2.05078ZM8.69905 2.57448C7.83025 2.57545 6.99731 2.92101 6.38297 3.53535C5.76865 4.14967 5.4231 4.98257 5.42211 5.85134C5.42211 5.85127 5.42211 5.85142 5.42211 5.85134V8.26975H4.21105C4.02875 8.26975 3.85391 8.34217 3.72501 8.47107C3.5961 8.59998 3.52369 8.77481 3.52369 8.95711C3.52369 9.13941 3.5961 9.31424 3.72501 9.44314C3.85391 9.57205 4.02875 9.64447 4.21105 9.64447H5.42211V13.965H4.21105C4.02875 13.965 3.85391 14.0374 3.72501 14.1663C3.5961 14.2952 3.52369 14.4701 3.52369 14.6524C3.52369 14.8347 3.5961 15.0095 3.72501 15.1384C3.85391 15.2673 4.02875 15.3397 4.21105 15.3397H5.42211V19.6603H4.21105C4.02875 19.6603 3.85391 19.7327 3.72501 19.8616C3.5961 19.9905 3.52369 20.1653 3.52369 20.3476C3.52369 20.5299 3.5961 20.7048 3.72501 20.8337C3.85391 20.9626 4.02875 21.035 4.21105 21.035H5.42211V25.3555H4.21105C4.02875 25.3555 3.85391 25.428 3.72501 25.5569C3.5961 25.6858 3.52369 25.8606 3.52369 26.0429C3.52369 26.2252 3.5961 26.4 3.72501 26.5289C3.85391 26.6578 4.02875 26.7303 4.21105 26.7303H5.42211L5.42211 29.1484C5.42211 29.1484 5.42211 29.1485 5.42211 29.1484C5.4231 30.0172 5.76865 30.8503 6.38297 31.4647C6.99734 32.079 7.83034 32.4246 8.69919 32.4255H28.1992C29.0681 32.4246 29.9011 32.079 30.5154 31.4647C31.1298 30.8503 31.4754 30.0173 31.4763 29.1484V5.85157C31.4754 4.98272 31.1298 4.14972 30.5154 3.53535C29.9011 2.92101 29.0682 2.57545 28.1994 2.57448H8.69905ZM8.69891 3.9492L28.1995 3.9492C28.7037 3.94979 29.1874 4.15034 29.5439 4.50687C29.9004 4.86339 30.101 5.34678 30.1016 5.85099V29.1487C30.101 29.6529 29.9004 30.1366 29.5439 30.4931C29.1874 30.8497 28.704 31.0502 28.1998 31.0508H8.69891C8.19471 31.0502 7.71102 30.8497 7.35449 30.4931C6.99796 30.1366 6.79741 29.6532 6.79683 29.149L6.79683 26.7303H8.00789C8.19019 26.7303 8.36502 26.6578 8.49392 26.5289C8.62283 26.4 8.69525 26.2252 8.69525 26.0429C8.69525 25.8606 8.62283 25.6858 8.49392 25.5569C8.36502 25.428 8.19019 25.3555 8.00789 25.3555H6.79683V21.035H8.00789C8.19019 21.035 8.36502 20.9626 8.49392 20.8337C8.62283 20.7048 8.69525 20.5299 8.69525 20.3476C8.69525 20.1653 8.62283 19.9905 8.49392 19.8616C8.36502 19.7327 8.19019 19.6603 8.00789 19.6603H6.79683V15.3397H8.00789C8.19019 15.3397 8.36502 15.2673 8.49392 15.1384C8.62283 15.0095 8.69525 14.8347 8.69525 14.6524C8.69525 14.4701 8.62283 14.2952 8.49392 14.1663C8.36502 14.0374 8.19019 13.965 8.00789 13.965H6.79683V9.64447H8.00789C8.19019 9.64447 8.36502 9.57205 8.49392 9.44314C8.62283 9.31424 8.69525 9.13941 8.69525 8.95711C8.69525 8.77481 8.62283 8.59998 8.49392 8.47107C8.36502 8.34217 8.19019 8.26975 8.00789 8.26975H6.79683V5.85129C6.79741 5.34708 6.99796 4.86339 7.35449 4.50687C7.71102 4.15034 8.19471 3.94979 8.69891 3.9492ZM28.1992 4.4729H8.69922C8.69915 4.4729 8.69928 4.4729 8.69922 4.4729C8.33377 4.47338 7.98322 4.61876 7.7248 4.87718C7.46639 5.13559 7.321 5.48594 7.32053 5.85139C7.32053 5.85132 7.32053 5.85146 7.32053 5.85139V7.74605H8.00789C8.32908 7.74605 8.63712 7.87364 8.86424 8.10076C9.09136 8.32788 9.21895 8.63591 9.21895 8.95711C9.21895 9.2783 9.09136 9.58634 8.86424 9.81346C8.63712 10.0406 8.32908 10.1682 8.00789 10.1682H7.32053V13.4413H8.00789C8.32908 13.4413 8.63712 13.5689 8.86424 13.796C9.09136 14.0231 9.21895 14.3312 9.21895 14.6524C9.21895 14.9736 9.09136 15.2816 8.86424 15.5087C8.63712 15.7358 8.32908 15.8634 8.00789 15.8634H7.32053V19.1366H8.00789C8.32908 19.1366 8.63712 19.2642 8.86424 19.4913C9.09136 19.7184 9.21895 20.0264 9.21895 20.3476C9.21895 20.6688 9.09136 20.9769 8.86424 21.204C8.63712 21.4311 8.32908 21.5587 8.00789 21.5587H7.32053V24.8318H8.00789C8.32908 24.8318 8.63712 24.9594 8.86424 25.1865C9.09136 25.4137 9.21895 25.7217 9.21895 26.0429C9.21895 26.3641 9.09136 26.6721 8.86424 26.8992C8.63712 27.1264 8.32908 27.254 8.00789 27.254H7.32053L7.32053 29.1484C7.32053 29.1483 7.32053 29.1485 7.32053 29.1484C7.321 29.5139 7.46639 29.8644 7.7248 30.1228C7.98327 30.3813 8.33369 30.5267 8.69922 30.5271H28.1992C28.5647 30.5267 28.9151 30.3813 29.1736 30.1228C29.4321 29.8644 29.5775 29.5139 29.5779 29.1484V5.85159C29.5775 5.48607 29.4321 5.13564 29.1736 4.87718C28.9152 4.61876 28.5646 4.47338 28.1992 4.4729C28.1993 4.4729 28.1991 4.4729 28.1992 4.4729Z" fill="#333333"/>
<path d="M19.3984 17.0418C20.3371 17.0418 21.2547 16.7634 22.0352 16.2419C22.8156 15.7204 23.424 14.9792 23.7832 14.112C24.1424 13.2447 24.2364 12.2905 24.0533 11.3698C23.8701 10.4492 23.4181 9.60352 22.7544 8.93977C22.0906 8.27602 21.245 7.82401 20.3243 7.64088C19.4037 7.45775 18.4494 7.55174 17.5822 7.91096C16.7149 8.27017 15.9737 8.87849 15.4522 9.65897C14.9307 10.4395 14.6523 11.3571 14.6523 12.2957C14.6539 13.554 15.1544 14.7603 16.0441 15.65C16.9338 16.5398 18.1401 17.0403 19.3984 17.0418ZM19.3984 9.44811C19.9616 9.44811 20.5122 9.61512 20.9805 9.92802C21.4487 10.2409 21.8137 10.6857 22.0293 11.206C22.2448 11.7263 22.3012 12.2989 22.1913 12.8513C22.0814 13.4037 21.8102 13.9111 21.412 14.3093C21.0137 14.7076 20.5063 14.9788 19.9539 15.0887C19.4016 15.1985 18.829 15.1421 18.3087 14.9266C17.7883 14.7111 17.3436 14.3461 17.0307 13.8778C16.7178 13.4095 16.5508 12.8589 16.5508 12.2957C16.5508 11.5405 16.8508 10.8162 17.3848 10.2822C17.9189 9.74812 18.6432 9.44811 19.3984 9.44811Z" fill="#333333"/>
<path fill-rule="evenodd" clip-rule="evenodd" d="M17.482 7.66905C18.397 7.29001 19.404 7.19084 20.3754 7.38407C21.3468 7.5773 22.2392 8.05426 22.9395 8.75463C23.6399 9.45499 24.1169 10.3473 24.3101 11.3188C24.5033 12.2902 24.4041 13.2971 24.0251 14.2122C23.6461 15.1273 23.0042 15.9094 22.1806 16.4597C21.3571 17.0099 20.3889 17.3037 19.3984 17.3037H19.3981C18.0705 17.3021 16.7977 16.774 15.8589 15.8352C14.9202 14.8964 14.3921 13.6237 14.3905 12.2961L14.3905 12.2957C14.3905 11.3053 14.6842 10.3371 15.2345 9.51351C15.7848 8.68996 16.5669 8.04808 17.482 7.66905ZM20.2732 7.89771C19.4034 7.72468 18.5018 7.81349 17.6824 8.15289C16.863 8.49228 16.1627 9.06704 15.6699 9.80446C15.1772 10.5418 14.9142 11.4088 14.9142 12.2956C14.9157 13.4845 15.3886 14.6242 16.2293 15.4649C17.07 16.3056 18.2098 16.7785 19.3987 16.78C20.2855 16.7799 21.1524 16.5169 21.8897 16.0242C22.6271 15.5315 23.2019 14.8312 23.5413 14.0118C23.8807 13.1924 23.9695 12.2908 23.7964 11.4209C23.6234 10.5511 23.1963 9.75207 22.5692 9.12494C21.9421 8.49781 21.1431 8.07073 20.2732 7.89771ZM19.3984 9.70997C18.7126 9.70997 18.0549 9.9824 17.57 10.4673C17.0851 10.9523 16.8126 11.61 16.8126 12.2957C16.8126 12.8072 16.9643 13.3071 17.2484 13.7323C17.5325 14.1576 17.9364 14.489 18.4089 14.6847C18.8814 14.8804 19.4013 14.9316 19.9029 14.8318C20.4045 14.7321 20.8652 14.4858 21.2268 14.1242C21.5885 13.7625 21.8347 13.3018 21.9345 12.8002C22.0343 12.2986 21.9831 11.7787 21.7874 11.3062C21.5916 10.8337 21.2602 10.4299 20.835 10.1458C20.4098 9.86162 19.9098 9.70997 19.3984 9.70997ZM17.1997 10.097C17.7828 9.51387 18.5737 9.18627 19.3984 9.18627C20.0134 9.18627 20.6146 9.36863 21.1259 9.71031C21.6373 10.052 22.0358 10.5376 22.2712 11.1058C22.5065 11.674 22.5681 12.2992 22.4481 12.9024C22.3282 13.5056 22.032 14.0596 21.5971 14.4945C21.1623 14.9294 20.6082 15.2255 20.005 15.3455C19.4019 15.4655 18.7766 15.4039 18.2085 15.1685C17.6403 14.9332 17.1546 14.5346 16.813 14.0233C16.4713 13.5119 16.2889 12.9107 16.2889 12.2957C16.2889 11.4711 16.6165 10.6802 17.1997 10.097Z" fill="#333333"/>
<path d="M19.3984 19.0383C17.3851 19.0406 15.455 19.8414 14.0314 21.265C12.6078 22.6886 11.807 24.6187 11.8047 26.632C11.8047 26.8838 11.9047 27.1252 12.0827 27.3032C12.2607 27.4812 12.5022 27.5812 12.7539 27.5812H26.0429C26.2946 27.5812 26.5361 27.4812 26.7141 27.3032C26.8921 27.1252 26.9921 26.8838 26.9921 26.632C26.9898 24.6187 26.1891 22.6886 24.7655 21.265C23.3418 19.8414 21.4117 19.0406 19.3984 19.0383ZM13.7819 25.6828C14.0052 24.3546 14.6919 23.1485 15.7201 22.2787C16.7484 21.4089 18.0516 20.9316 19.3984 20.9316C20.7452 20.9316 22.0484 21.4089 23.0767 22.2787C24.1049 23.1485 24.7916 24.3546 25.0149 25.6828H13.7819Z" fill="#333333"/>
<path fill-rule="evenodd" clip-rule="evenodd" d="M19.3987 18.7765C21.4813 18.7788 23.478 19.6072 24.9506 21.0798C26.4233 22.5525 27.2516 24.5491 27.254 26.6317C27.254 26.9529 27.1264 27.2613 26.8992 27.4884C26.6721 27.7155 26.3641 27.8431 26.0429 27.8431H12.7539C12.4327 27.8431 12.1247 27.7155 11.8976 27.4884C11.6705 27.2613 11.5429 26.9532 11.5429 26.632C11.5452 24.5494 12.3736 22.5525 13.8462 21.0798C15.3188 19.6072 17.3161 18.7788 19.3987 18.7765ZM19.3984 19.3002C17.4546 19.3025 15.591 20.0756 14.2165 21.4501C12.842 22.8247 12.0688 24.6883 12.0666 26.6322C12.0666 26.8144 12.139 26.9892 12.2679 27.1181C12.3968 27.247 12.5716 27.3194 12.7539 27.3194H26.0429C26.2252 27.3194 26.4 27.247 26.5289 27.1181C26.6578 26.9892 26.7302 26.8143 26.7302 26.632C26.7281 24.6881 25.9549 22.8247 24.5803 21.4501C23.2058 20.0756 21.3422 19.3025 19.3984 19.3002ZM19.3984 21.1934C18.1135 21.1934 16.8702 21.6488 15.8892 22.4786C14.9877 23.2413 14.3613 24.275 14.1005 25.421H24.6963C24.4355 24.275 23.8092 23.2413 22.9076 22.4786C21.9266 21.6488 20.6833 21.1934 19.3984 21.1934ZM15.551 22.0788C16.6265 21.169 17.9897 20.6697 19.3984 20.6697C20.8071 20.6697 22.1703 21.169 23.2458 22.0788C24.3213 22.9886 25.0396 24.2502 25.2731 25.6394L25.3244 25.9447H13.4724L13.5237 25.6394C13.7572 24.2502 14.4755 22.9886 15.551 22.0788Z" fill="#333333"/>
</svg>
