<svg width="35" height="35" viewBox="0 0 35 35" fill="none" xmlns="http://www.w3.org/2000/svg">
<path d="M27.427 9.63541C27.9965 9.0659 27.9965 8.14252 27.427 7.57302C26.8575 7.00349 25.9341 7.00349 25.3646 7.57302L17.5 15.4377L9.63534 7.57302C9.06584 7.00349 8.14246 7.00349 7.57296 7.57302C7.00343 8.14252 7.00343 9.0659 7.57296 9.63541L15.4376 17.5001L7.57296 25.3647C7.00343 25.9342 7.00343 26.8576 7.57296 27.4271C8.14246 27.9966 9.06584 27.9966 9.63534 27.4271L17.5 19.5624L25.3646 27.4271C25.9341 27.9966 26.8575 27.9966 27.427 27.4271C27.9965 26.8576 27.9965 25.9342 27.427 25.3647L19.5624 17.5001L27.427 9.63541Z" fill="#333333"/>
</svg>
