<svg width="35" height="35" viewBox="0 0 35 35" fill="none" xmlns="http://www.w3.org/2000/svg">
<path d="M16.5641 23.7087C16.6866 23.8322 16.8324 23.9303 16.993 23.9972C17.1537 24.0642 17.326 24.0986 17.5 24.0986C17.674 24.0986 17.8463 24.0642 18.0069 23.9972C18.1676 23.9303 18.3134 23.8322 18.4359 23.7087L25.0268 17.1178C25.1497 16.9949 25.2472 16.849 25.3137 16.6884C25.3803 16.5278 25.4145 16.3557 25.4145 16.1819C25.4145 16.008 25.3803 15.8359 25.3137 15.6753C25.2472 15.5148 25.1497 15.3688 25.0268 15.2459C24.9039 15.123 24.758 15.0255 24.5974 14.959C24.4368 14.8925 24.2647 14.8583 24.0909 14.8583C23.9171 14.8583 23.745 14.8925 23.5844 14.959C23.4238 15.0255 23.2779 15.123 23.155 15.2459L18.8182 19.596V4.31819C18.8182 3.96858 18.6793 3.6333 18.4321 3.38609C18.1849 3.13888 17.8496 3 17.5 3C17.1504 3 16.8151 3.13888 16.5679 3.38609C16.3207 3.6333 16.1818 3.96858 16.1818 4.31819V19.596L11.845 15.2459C11.5968 14.9977 11.2601 14.8583 10.9091 14.8583C10.558 14.8583 10.2214 14.9977 9.97315 15.2459C9.72493 15.4942 9.58548 15.8308 9.58548 16.1819C9.58548 16.5329 9.72493 16.8695 9.97315 17.1178L16.5641 23.7087Z" fill="#333333"/>
<path d="M29.3637 21.4546C29.0141 21.4546 28.6788 21.5935 28.4316 21.8407C28.1844 22.0879 28.0455 22.4232 28.0455 22.7728V25.4091C28.0455 26.458 27.6288 27.4638 26.8872 28.2054C26.1456 28.9471 25.1397 29.3637 24.0909 29.3637H10.9091C9.86026 29.3637 8.8544 28.9471 8.11278 28.2054C7.37116 27.4638 6.95452 26.458 6.95452 25.4091V22.7728C6.95452 22.4232 6.81564 22.0879 6.56843 21.8407C6.32122 21.5935 5.98594 21.4546 5.63633 21.4546C5.28673 21.4546 4.95144 21.5935 4.70423 21.8407C4.45703 22.0879 4.31815 22.4232 4.31815 22.7728V25.4091C4.31815 26.2747 4.48863 27.1317 4.81985 27.9314C5.15108 28.731 5.63656 29.4576 6.24858 30.0696C7.48462 31.3057 9.16105 32.0001 10.9091 32.0001H24.0909C24.9565 32.0001 25.8135 31.8296 26.6132 31.4984C27.4128 31.1671 28.1394 30.6817 28.7514 30.0696C29.3634 29.4576 29.8489 28.731 30.1802 27.9314C30.5114 27.1317 30.6819 26.2747 30.6819 25.4091V22.7728C30.6819 22.4232 30.543 22.0879 30.2958 21.8407C30.0486 21.5935 29.7133 21.4546 29.3637 21.4546Z" fill="#333333"/>
</svg>
