<svg width="35" height="35" viewBox="0 0 35 35" fill="none" xmlns="http://www.w3.org/2000/svg">
<path d="M18.533 22.6652L14.4008 26.7975C14.4008 26.7975 14.4008 26.7976 14.4007 26.7976C14.4007 26.7976 14.4007 26.7977 14.4006 26.7977C12.6918 28.5066 9.91122 28.5067 8.20224 26.7977C7.37434 25.9698 6.91851 24.8691 6.91851 23.6985C6.91851 22.5279 7.37434 21.4274 8.20195 20.5995C8.20204 20.5994 8.20214 20.5993 8.20224 20.5992L12.3344 16.4669C12.9049 15.8963 12.9049 14.9712 12.3343 14.4008C11.7639 13.8303 10.8388 13.8303 10.2682 14.4008L6.136 18.533C6.1357 18.5333 6.13541 18.5337 6.13512 18.534C4.75603 19.9136 3.99651 21.7477 3.99651 23.6985C3.99651 25.6497 4.75632 27.4841 6.13609 28.8639C7.56028 30.288 9.43084 31.0001 11.3015 31.0001C13.1722 31.0001 15.0428 30.288 16.4668 28.8639C16.4669 28.8639 16.4669 28.8637 16.4669 28.8637L20.5991 24.7314C21.1696 24.1609 21.1696 23.2358 20.599 22.6652C20.0287 22.0948 19.1036 22.0948 18.533 22.6652Z" fill="#333333"/>
<path d="M31.0035 11.3015C31.0035 9.35029 30.2436 7.51586 28.8638 6.13609C26.0155 3.28792 21.3811 3.28802 18.5331 6.13609C18.533 6.13629 18.5328 6.13639 18.5327 6.13658L14.4006 10.2686C13.83 10.8391 13.83 11.7643 14.4006 12.3347C14.686 12.6201 15.0598 12.7627 15.4337 12.7627C15.8075 12.7627 16.1815 12.62 16.4667 12.3347L20.5988 8.20273C20.5989 8.20253 20.5991 8.20244 20.5993 8.20224C22.3081 6.49345 25.0887 6.49336 26.7977 8.20224C27.6255 9.03014 28.0815 10.1309 28.0815 11.3015C28.0815 12.4721 27.6257 13.5726 26.798 14.4005L26.7977 14.4008L22.6655 18.5331C22.095 19.1035 22.095 20.0287 22.6656 20.5992C22.9508 20.8845 23.3248 21.0272 23.6986 21.0272C24.0725 21.0272 24.4464 20.8845 24.7317 20.5992L28.8639 16.4669C28.8642 16.4666 28.8645 16.4662 28.8648 16.466C30.2439 15.0864 31.0035 13.2522 31.0035 11.3015Z" fill="#333333"/>
<path d="M12.3346 22.6652C12.6199 22.9505 12.9938 23.0932 13.3677 23.0932C13.7416 23.0932 14.1155 22.9505 14.4008 22.6652L22.6654 14.4006C23.2359 13.8301 23.2359 12.905 22.6654 12.3345C22.0949 11.764 21.1698 11.764 20.5992 12.3345L12.3346 20.599C11.7641 21.1696 11.7641 22.0947 12.3346 22.6652Z" fill="#333333"/>
</svg>
