<svg width="35" height="35" viewBox="0 0 35 35" fill="none" xmlns="http://www.w3.org/2000/svg">
<path d="M31.6419 13.6394L21.3533 3.35075C20.8856 2.88308 20.1841 2.88308 19.7165 3.35075L15.9751 7.09206C15.3906 7.67664 15.6244 8.37814 15.9751 8.72889L16.7936 9.5473L13.2861 13.0548C11.5323 12.704 6.73878 11.8856 4.16662 14.4578C3.69896 14.9254 3.69896 15.6269 4.16662 16.0946L10.8308 22.7588L3.46513 30.1245C2.99746 30.5922 2.99746 31.2937 3.46513 31.7614C3.93279 32.229 4.75121 32.1121 5.10195 31.7614L12.4677 24.3956L19.1319 31.0599C19.8334 31.6444 20.5349 31.4106 20.7687 31.0599C23.3409 28.4877 22.5224 23.6941 22.1717 21.9404L25.6792 18.4329L26.4976 19.2513C26.9653 19.719 27.6668 19.719 28.1344 19.2513L31.8757 15.51C32.1096 14.8085 32.1096 14.107 31.6419 13.6394ZM27.0822 16.5623L26.2638 15.7439C25.7961 15.2762 25.0946 15.2762 24.6269 15.7439L19.8334 20.6543C19.4826 21.0051 19.3657 21.3558 19.4826 21.8235C19.8334 23.1096 20.418 26.2663 19.4826 28.3708L6.62186 15.51C8.60944 14.5747 11.8831 15.1593 13.1692 15.51C13.5199 15.6269 13.9876 15.51 14.3383 15.1593L19.1319 10.3657C19.8334 9.66422 19.4826 9.07964 19.1319 8.72889L18.3135 7.91048L20.5349 5.80599L29.1867 14.4578L27.0822 16.5623Z" fill="#333333"/>
</svg>
