<svg width="35" height="35" viewBox="0 0 35 35" fill="none" xmlns="http://www.w3.org/2000/svg">
<path fill-rule="evenodd" clip-rule="evenodd" d="M2.18486 18.2551C2.40379 17.6394 3.08047 17.3177 3.69626 17.5365L16.3107 22.0217C17.08 22.2953 17.92 22.2953 18.6892 22.0217L31.3037 17.5365C31.9195 17.3177 32.5962 17.6394 32.815 18.2551C33.034 18.8709 32.7123 19.5476 32.0965 19.7666L19.482 24.2516C18.1999 24.7075 16.8 24.7075 15.5178 24.2516L2.90338 19.7666C2.2876 19.5476 1.96591 18.8709 2.18486 18.2551Z" fill="#333333" stroke="#333333" stroke-width="0.35"/>
<path fill-rule="evenodd" clip-rule="evenodd" d="M2.18486 25.9608C2.40379 25.3451 3.08047 25.0234 3.69626 25.2422L16.3107 29.7274C17.08 30.001 17.92 30.001 18.6892 29.7274L31.3037 25.2422C31.9195 25.0234 32.5962 25.3451 32.815 25.9608C33.034 26.5766 32.7123 27.2533 32.0965 27.4723L19.482 31.9573C18.1999 32.4131 16.8 32.4131 15.5178 31.9573L2.90338 27.4723C2.2876 27.2533 1.96591 26.5766 2.18486 25.9608Z" fill="#333333" stroke="#333333" stroke-width="0.35"/>
<path fill-rule="evenodd" clip-rule="evenodd" d="M19.2523 5.3794C18.1204 4.96775 16.8796 4.96775 15.7476 5.3794L4.62633 9.42349C4.28013 9.54938 4.28015 10.039 4.62633 10.1649L15.7476 14.209C16.8796 14.6206 18.1204 14.6206 19.2523 14.209L30.3735 10.1649C30.7199 10.039 30.7199 9.54936 30.3735 9.42349L19.2523 5.3794ZM14.9388 3.1552C16.5932 2.55357 18.4068 2.55357 20.0612 3.1552L31.1825 7.19929C33.6058 8.08052 33.6058 11.5078 31.1825 12.3891L20.0612 16.4332C18.4068 17.0348 16.5932 17.0348 14.9388 16.4332L3.81754 12.3891C1.39415 11.5078 1.39416 8.0805 3.81754 7.19929L14.9388 3.1552Z" fill="#333333" stroke="#333333" stroke-width="0.35"/>
</svg>
