<svg width="35" height="35" viewBox="0 0 35 35" fill="none" xmlns="http://www.w3.org/2000/svg">
<path d="M29.65 22.9H5.35C4.54 22.9 4 23.44 4 24.25C4 25.06 4.54 25.6 5.35 25.6H29.65C30.46 25.6 31 25.06 31 24.25C31 23.44 30.46 22.9 29.65 22.9Z" fill="#333333"/>
<path d="M25.6 18.8499C25.195 18.8499 24.925 18.9849 24.655 19.2549C24.115 19.7949 24.115 20.6049 24.655 21.1449L27.76 24.2499L24.655 27.3549C24.115 27.8949 24.115 28.7049 24.655 29.2449C25.195 29.7849 26.005 29.7849 26.545 29.2449L30.595 25.1949C31.135 24.6549 31.135 23.8449 30.595 23.3049L26.545 19.2549C26.275 18.9849 26.005 18.8499 25.6 18.8499Z" fill="#333333"/>
<path d="M9.39999 5.35004C8.995 5.35004 8.725 5.48504 8.455 5.75504L4.405 9.80503C3.865 10.345 3.865 11.155 4.405 11.695L8.455 15.745C8.995 16.285 9.80499 16.285 10.345 15.745C10.885 15.205 10.885 14.395 10.345 13.855L7.24 10.75L10.345 7.64503C10.885 7.10504 10.885 6.29503 10.345 5.75504C10.075 5.48504 9.80499 5.35004 9.39999 5.35004Z" fill="#333333"/>
<path d="M29.65 9.39998H5.35C4.54 9.39998 4 9.93998 4 10.75C4 11.56 4.54 12.1 5.35 12.1H29.65C30.46 12.1 31 11.56 31 10.75C31 9.93998 30.46 9.39998 29.65 9.39998Z" fill="#333333"/>
</svg>
