<svg width="100" height="100" viewBox="0 0 100 100" fill="none" xmlns="http://www.w3.org/2000/svg">
<path d="M46.3597 24H21C17.134 24 14 27.134 14 31V81C14 84.866 17.134 88 21 88H57C60.866 88 64 84.866 64 81V40.9603L46.3597 24Z" stroke="black" stroke-width="5" stroke-linejoin="round"/>
<path d="M64 41L46 41L46 24L64 41Z" stroke="black" stroke-width="5" stroke-linejoin="round"/>
<path d="M24 77H45" stroke="black" stroke-width="5" stroke-linecap="round"/>
<path d="M24 66H40" stroke="black" stroke-width="5" stroke-linecap="round"/>
<path d="M24 54H51" stroke="black" stroke-width="5" stroke-linecap="round"/>
<path d="M75.3518 11C75.3518 11 76.5223 17.5586 79.3337 20.37C82.145 23.1813 88.7036 24.3518 88.7036 24.3518C88.7036 24.3518 82.145 25.5223 79.3336 28.3336C76.5223 31.145 75.3518 37.7036 75.3518 37.7036C75.3518 37.7036 74.1813 31.145 71.37 28.3336C68.5586 25.5223 62 24.3518 62 24.3518C62 24.3518 68.5586 23.1813 71.37 20.37C74.1813 17.5586 75.3518 11 75.3518 11Z" stroke="black" stroke-width="5" stroke-linejoin="round"/>
</svg>
