<svg width="100" height="100" viewBox="0 0 100 100" fill="none" xmlns="http://www.w3.org/2000/svg">
<path d="M37.8235 45.8L35.4962 40.9643C34.3298 38.5409 31.8782 37 29.1887 37H21C17.134 37 14 40.134 14 44V45.8V74C14 77.866 17.134 81 21 81H35.1765H61C64.866 81 68 77.866 68 74V52.8C68 48.934 64.866 45.8 61 45.8H37.8235Z" stroke="black" stroke-width="5"/>
<path d="M23 36.8V35C23 31.134 26.134 28 30 28H38.5866C41.2578 28 43.6962 29.5203 44.872 31.9189L47.2647 36.8H71C74.866 36.8 78 39.934 78 43.8V65C78 68.866 74.866 72 71 72H68.2941" stroke="black" stroke-width="5"/>
<path d="M33 27.8V26C33 22.134 36.134 19 40 19H48.1887C50.8782 19 53.3298 20.5409 54.4962 22.9643L56.8235 27.8H80C83.866 27.8 87 30.934 87 34.8V56C87 59.866 83.866 63 80 63H77.4706" stroke="black" stroke-width="5"/>
</svg>
