<svg width="100" height="100" viewBox="0 0 100 100" fill="none" xmlns="http://www.w3.org/2000/svg">
<path d="M24.6761 68.0503C17.6753 68.0503 12 62.3348 12 55.2843C12 49.3223 16.0582 44.3149 21.5445 42.9109C21.5197 42.6061 21.507 42.2978 21.507 41.9865C21.507 35.8173 26.4729 30.8162 32.5986 30.8162C34.868 30.8162 36.9782 31.5027 38.7358 32.6806C40.3368 24.345 47.6216 18.0503 56.3662 18.0503C66.284 18.0503 74.3239 26.1473 74.3239 36.1354C74.3239 36.5673 74.3089 36.9956 74.2793 37.4199C81.5021 38.6618 87 44.9967 87 52.6248C87 60.2528 81.5021 66.5877 74.2793 67.8296" stroke="black" stroke-width="5" stroke-linecap="round" stroke-linejoin="round"/>
<path d="M47.6844 58.6843L51.7793 54.9464C55.0421 51.6836 60.3322 51.6836 63.595 54.9464C66.8578 58.2093 66.8578 63.4993 63.595 66.7621L59.5 70.5" stroke="black" stroke-width="5" stroke-linecap="round"/>
<path d="M50.5 80L46.8843 83.473C43.6215 86.7358 38.3315 86.7358 35.0687 83.473C31.8059 80.2102 31.8059 74.9201 35.0687 71.6573L38.6843 68.1843" stroke="black" stroke-width="5" stroke-linecap="round"/>
<line x1="54.0462" y1="64.6312" x2="44.7533" y2="73.9241" stroke="black" stroke-width="5" stroke-linecap="round"/>
</svg>
