<svg width="100" height="100" viewBox="0 0 100 100" fill="none" xmlns="http://www.w3.org/2000/svg">
<path d="M10 48.1847H21.6661C24.928 48.1847 27.5723 45.5404 27.5723 42.2785V40.8639C27.5723 32.9468 33.9904 26.5287 41.9075 26.5287V26.5287C49.8247 26.5287 56.2428 32.9468 56.2428 40.8639V71.0162C56.2428 78.7392 49.982 85 42.259 85H30.8256C23.4102 85 17.3988 78.9886 17.3988 71.5732V71.5732C17.3988 64.1579 23.4102 58.1465 30.8256 58.1465H55.1156C63.3999 58.1465 70.1156 51.4308 70.1156 43.1465V30.9043C70.1156 23.2252 63.8904 17 56.2113 17V17C48.5568 17 42.3418 23.1868 42.3071 30.8412L42.186 57.5097C42.1508 65.2664 48.429 71.5732 56.1858 71.5732H90M90 71.5732C90 71.5732 85.5918 76.1352 83.0636 78.5032M90 71.5732L83.0636 64.6433" stroke="black" stroke-width="5" stroke-linecap="round" stroke-linejoin="round"/>
</svg>
