<svg width="100" height="100" viewBox="0 0 100 100" fill="none" xmlns="http://www.w3.org/2000/svg">
<path d="M33.7992 36.3858C33.7992 36.3858 30.9086 32.0097 28.8811 29.3394V29.3394C25.3974 24.7512 18.5074 28.2138 20.1185 33.7449C20.2666 34.2533 20.4022 34.6417 20.5205 34.8759C21.6706 37.1524 23.9631 40.4123 23.9631 40.4123M33.7992 36.3858L33.7174 36.1206C32.2375 31.3247 38.0244 27.95 41.1762 31.856V31.856C47.7444 39.9957 55.0473 51.6177 60.1619 60.1958C64.0243 66.6736 62.1917 74.9497 56.1031 79.4004L48.9147 84.6551C43.2428 88.8013 35.4528 88.4551 30.1711 83.822L28.8811 82.6904L16.9761 70.5068C16.0662 69.5756 15.3109 68.5042 14.7393 67.3344V67.3344C12.9377 63.6468 16.8276 59.7606 20.5205 61.5514V61.5514C23.7814 63.1327 28.8811 65.5778 28.8811 65.5778C28.8811 65.5778 20.4815 53.6778 16.0943 45.4454V45.4454C13.4532 40.4896 19.5338 36.2679 23.6344 40.1047L23.9631 40.4123M33.7992 36.3858L42.1598 49.9752M23.9631 40.4123L32.8156 54.505" stroke="black" stroke-width="5" stroke-linecap="round" stroke-linejoin="round"/>
<path d="M68.75 79.75C77.25 75.75 83.75 65.75 83.75 65.75L84.5436 64.1629C86.2641 60.7219 82.3779 56.9698 78.75 58.25V58.25C76.069 59.1961 71.75 60.25 71.75 60.25C71.75 60.25 78.7896 50.4282 83.25 42.25V42.25C85.9491 37.3011 79.8915 33.0063 75.7312 36.8101L75.25 37.25M65.25 33.25C65.25 33.25 68.1887 28.9027 70.25 26.25V26.25C73.8313 21.6411 80.8314 25.215 79.1086 30.7917C78.9775 31.2161 78.8568 31.5434 78.75 31.75C77.5808 34.0116 75.25 37.25 75.25 37.25M65.25 33.25V33.25C66.78 28.4049 60.9853 24.8322 57.75 28.75V28.75C55.4091 31.5846 55.75 31.25 54.75 32.75M65.25 33.25L60.75 40.75M75.25 37.25L66.75 50.25" stroke="black" stroke-width="5" stroke-linecap="round" stroke-linejoin="round"/>
<line x1="45.75" y1="9.75" x2="45.75" y2="17.75" stroke="black" stroke-width="4" stroke-linecap="round"/>
<line x1="34.2348" y1="14.9903" x2="39.5376" y2="21.0701" stroke="black" stroke-width="4" stroke-linecap="round"/>
<line x1="2" y1="-2" x2="10.0674" y2="-2" transform="matrix(-0.657314 0.753617 0.753617 0.657314 59.4574 14.7977)" stroke="black" stroke-width="4" stroke-linecap="round"/>
</svg>
