<svg width="100" height="100" viewBox="0 0 100 100" fill="none" xmlns="http://www.w3.org/2000/svg">
<rect x="51.8313" y="59.5421" width="36.1687" height="28.5542" rx="7" stroke="black" stroke-width="5"/>
<path d="M74.9613 72.9406C75.658 73.3192 75.658 74.3194 74.9613 74.698L65.9202 79.6108C65.2539 79.9729 64.4428 79.4905 64.4428 78.7321L64.4428 68.9065C64.4428 68.1481 65.2539 67.6657 65.9202 68.0278L74.9613 72.9406Z" stroke="black" stroke-width="4" stroke-linejoin="round"/>
<path d="M13.199 78.4295L15.699 78.4162L15.6928 77.2492L14.7942 76.5045L13.199 78.4295ZM13.25 88L10.75 88.0133C10.7548 88.913 11.2427 89.7408 12.0275 90.1807C12.8124 90.6207 13.773 90.605 14.5431 90.1396L13.25 88ZM22.5375 82.3871L22.9083 79.9147L22.0163 79.781L21.2444 80.2475L22.5375 82.3871ZM9 70.3214H6.5C6.5 74.334 8.5551 77.8279 11.6039 80.3544L13.199 78.4295L14.7942 76.5045C12.6136 74.6975 11.5 72.5183 11.5 70.3214H9ZM13.199 78.4295L10.6991 78.4428L10.75 88.0133L13.25 88L15.75 87.9867L15.699 78.4162L13.199 78.4295ZM13.25 88L14.5431 90.1396L23.8306 84.5267L22.5375 82.3871L21.2444 80.2475L11.9569 85.8604L13.25 88ZM22.5375 82.3871L22.1667 84.8594C23.4079 85.0456 24.6899 85.1429 26 85.1429V82.6429V80.1429C24.9371 80.1429 23.903 80.0639 22.9083 79.9147L22.5375 82.3871ZM26 82.6429V85.1429C31.1635 85.1429 35.9403 83.6295 39.488 81.0582C43.0328 78.489 45.5 74.7246 45.5 70.3214H43H40.5C40.5 72.7232 39.1617 75.1195 36.5537 77.0098C33.9486 78.8979 30.2253 80.1429 26 80.1429V82.6429ZM43 70.3214H45.5C45.5 65.9183 43.0328 62.1539 39.488 59.5846C35.9403 57.0133 31.1635 55.5 26 55.5V58V60.5C30.2253 60.5 33.9486 61.7449 36.5537 63.6331C39.1617 65.5233 40.5 67.9196 40.5 70.3214H43ZM26 58V55.5C20.8365 55.5 16.0597 57.0133 12.512 59.5846C8.96723 62.1539 6.5 65.9183 6.5 70.3214H9H11.5C11.5 67.9196 12.8383 65.5233 15.4463 63.6331C18.0514 61.7449 21.7747 60.5 26 60.5V58Z" fill="black"/>
<rect x="56.5903" y="12.9036" width="28.5542" height="38.0723" rx="7" stroke="black" stroke-width="5"/>
<path d="M64.2048 42.4097H75.6265" stroke="black" stroke-width="4" stroke-linecap="round"/>
<path d="M64.2048 28.1326H77.5301" stroke="black" stroke-width="4" stroke-linecap="round"/>
<path d="M64.2048 35.7469H71.8193" stroke="black" stroke-width="4" stroke-linecap="round"/>
<path d="M64.2048 21.4698H74.6747" stroke="black" stroke-width="4" stroke-linecap="round"/>
<rect x="11.8554" y="15.759" width="35.2169" height="33.3133" rx="7" stroke="black" stroke-width="5"/>
<path d="M20.4217 40.506L25.9577 34.7952L31.4937 40.506L35.1844 36.6988L38.506 40.506" stroke="black" stroke-width="5" stroke-linecap="round" stroke-linejoin="round"/>
<circle cx="34.6988" cy="26.2289" r="3.80723" stroke="black" stroke-width="4"/>
</svg>
