<svg width="35" height="35" viewBox="0 0 35 35" fill="none" xmlns="http://www.w3.org/2000/svg">
<path d="M12.6254 15.5128C11.2582 15.5128 9.92163 15.1166 8.78481 14.3742C7.64798 13.6318 6.76194 12.5766 6.23872 11.342C5.7155 10.1074 5.5786 8.74892 5.84533 7.4383C6.11207 6.12769 6.77046 4.92381 7.73725 3.97891C8.70404 3.03401 9.9358 2.39052 11.2768 2.12983C12.6177 1.86913 14.0077 2.00293 15.2709 2.5143C16.534 3.02568 17.6137 3.89167 18.3733 5.00275C19.1329 6.11384 19.5383 7.42012 19.5383 8.75641C19.5362 10.5477 18.8072 12.265 17.5112 13.5316C16.2152 14.7982 14.4582 15.5107 12.6254 15.5128ZM12.6254 4.38462C11.7407 4.38462 10.8759 4.64102 10.1403 5.1214C9.40472 5.60178 8.8314 6.28456 8.49285 7.0834C8.15429 7.88224 8.06571 8.76126 8.2383 9.60931C8.4109 10.4574 8.83691 11.2363 9.46248 11.8477C10.0881 12.4591 10.8851 12.8755 11.7528 13.0442C12.6205 13.2129 13.5198 13.1263 14.3372 12.7954C15.1545 12.4645 15.8531 11.9042 16.3446 11.1853C16.8361 10.4663 17.0985 9.62107 17.0985 8.75641C17.0976 7.5972 16.6261 6.4857 15.7874 5.66602C14.9487 4.84633 13.8115 4.38546 12.6254 4.38462ZM19.117 33H6.10451C2.16821 33 0 30.8936 0 27.0687C0 22.8368 2.44961 17.8974 9.35276 17.8974H15.859C22.7622 17.8974 25.2118 22.8368 25.2118 27.0687C25.2167 30.8936 23.0485 33 19.117 33ZM9.35764 20.2821C8.42885 20.2118 7.49553 20.3395 6.62212 20.6561C5.74871 20.9728 4.95602 21.471 4.29878 22.1162C3.64153 22.7614 3.13539 23.5384 2.81529 24.3934C2.49519 25.2485 2.36876 26.1612 2.44473 27.0687C2.44473 29.555 3.54104 30.6154 6.10939 30.6154H19.117C21.6854 30.6154 22.7817 29.555 22.7817 27.0687C22.8578 26.1608 22.7312 25.2476 22.4108 24.3922C22.0905 23.5368 21.5839 22.7596 20.9261 22.1143C20.2683 21.4689 19.475 20.9709 18.601 20.6546C17.727 20.3382 16.7931 20.2111 15.8639 20.2821H9.35764ZM24.9076 16.2123C23.4488 16.2172 22.0466 15.661 21.0039 14.6639C20.8061 14.4382 20.7018 14.1484 20.7113 13.8514C20.7207 13.5544 20.8433 13.2716 21.055 13.0583C21.2667 12.845 21.5523 12.7167 21.8557 12.6985C22.1592 12.6802 22.4586 12.7734 22.6955 12.9597C23.2851 13.5215 24.0777 13.8334 24.9011 13.8277C25.3232 13.8322 25.7419 13.7542 26.1328 13.5984C26.5236 13.4426 26.8786 13.2121 27.1771 12.9204C27.4756 12.6287 27.7114 12.2816 27.8709 11.8997C28.0303 11.5177 28.11 11.1084 28.1055 10.6959C28.1042 9.86568 27.7661 9.06983 27.1655 8.48278C26.5648 7.89573 25.7506 7.56537 24.9011 7.56411C24.4344 7.55684 23.9726 7.65877 23.5543 7.86139C23.2659 8.00495 22.931 8.03067 22.6232 7.93288C22.3154 7.83509 22.06 7.62181 21.9131 7.33995C21.7662 7.05809 21.7399 6.73075 21.84 6.42993C21.94 6.12912 22.1582 5.87946 22.4466 5.7359C23.2096 5.36057 24.0535 5.16975 24.9076 5.17949C26.4046 5.17949 27.8402 5.76068 28.8987 6.79521C29.9572 7.82974 30.5518 9.23286 30.5518 10.6959C30.5518 12.1589 29.9572 13.5621 28.8987 14.5966C27.8402 15.6311 26.4046 16.2123 24.9076 16.2123ZM29.95 29.8205H28.8439C28.5204 29.8205 28.2101 29.6949 27.9813 29.4713C27.7525 29.2477 27.624 28.9444 27.624 28.6282C27.624 28.312 27.7525 28.0087 27.9813 27.7851C28.2101 27.5615 28.5204 27.4359 28.8439 27.4359H29.95C31.8124 27.4359 32.5362 26.7364 32.5362 24.94C32.592 24.2699 32.4983 23.596 32.2615 22.9648C32.0248 22.3336 31.6507 21.7601 31.1651 21.284C30.6795 20.8078 30.094 20.4404 29.4489 20.207C28.8038 19.9737 28.1146 19.8799 27.4288 19.9323H24.9727C24.6491 19.9323 24.3388 19.8067 24.1101 19.5831C23.8813 19.3595 23.7528 19.0562 23.7528 18.74C23.7528 18.4238 23.8813 18.1205 24.1101 17.8969C24.3388 17.6733 24.6491 17.5477 24.9727 17.5477H27.4288C28.4385 17.4829 29.4507 17.6298 30.3975 17.9786C31.3444 18.3274 32.204 18.87 32.9187 19.57C33.6334 20.2701 34.1868 21.1114 34.5416 22.0376C34.8964 22.9637 35.0446 23.9533 34.9761 24.94C35.0456 25.6004 34.9631 26.2677 34.7346 26.8929C34.5061 27.5181 34.1375 28.0855 33.6556 28.5534C33.1737 29.0213 32.5908 29.378 31.9496 29.5972C31.3085 29.8165 30.6252 29.8928 29.95 29.8205Z" fill="#333333"/>
</svg>
