<svg width="35" height="35" viewBox="0 0 35 35" fill="none" xmlns="http://www.w3.org/2000/svg">
<path d="M31.6296 8.28191L28.2314 4.8182C27.7375 4.31476 26.9368 4.31476 26.4429 4.8182C25.9491 5.32165 25.949 6.13782 26.4429 6.6412L27.2478 7.46155L25.5973 9.14391C23.4487 7.31692 20.8363 6.214 18.0496 5.95728V3.57812H19.1878C19.8863 3.57812 20.4525 3.00101 20.4525 2.28906C20.4525 1.57711 19.8863 1 19.1878 1H14.382C13.6836 1 13.1174 1.57711 13.1174 2.28906C13.1174 3.00101 13.6836 3.57812 14.382 3.57812H15.5202V5.95728C8.582 6.5964 3 12.535 3 19.9492C3 27.7147 9.16533 34 16.7849 34C24.4034 34 30.5698 27.7158 30.5698 19.9492C30.5698 16.6292 29.447 13.4855 27.3858 10.9669L29.0363 9.28455L29.8411 10.1049C30.335 10.6083 31.1357 10.6083 31.6296 10.1049C32.1235 9.60153 32.1235 8.78536 31.6296 8.28191ZM16.7849 31.4219C10.5786 31.4219 5.52934 26.2752 5.52934 19.9492C5.52934 13.6232 10.5786 8.47656 16.7849 8.47656C22.9912 8.47656 28.0405 13.6232 28.0405 19.9492C28.0405 26.2752 22.9913 31.4219 16.7849 31.4219ZM23.3563 19.9492C23.3563 20.6612 22.7901 21.2383 22.0917 21.2383H16.785C16.0865 21.2383 15.5203 20.6612 15.5203 19.9492V12.3647C15.5203 11.6527 16.0865 11.0756 16.785 11.0756C17.4834 11.0756 18.0496 11.6527 18.0496 12.3647V18.6602H22.0917C22.7901 18.6602 23.3563 19.2373 23.3563 19.9492Z" fill="#333333"/>
</svg>
