<svg width="35" height="35" viewBox="0 0 35 35" fill="none" xmlns="http://www.w3.org/2000/svg">
<path d="M27.7681 29.3914C28.4484 29.3914 28.9999 28.8492 28.9999 28.1804V6.84375C28.9999 4.17291 26.7895 2 24.0725 2H8.92746C6.21046 2 4 4.17291 4 6.84375V28.1562C4 30.8271 6.21046 33 8.92746 33H24.0725C26.7895 33 28.9999 30.8271 29 28.1562C29 27.4874 28.4485 26.9453 27.7681 26.9453C27.0878 26.9453 26.5363 27.4874 26.5363 28.1562C26.5363 29.4917 25.431 30.5781 24.0725 30.5781H8.92746C7.56896 30.5781 6.46373 29.4917 6.46373 28.1562V6.84375C6.46373 5.50833 7.56896 4.42188 8.92746 4.42188H24.0725C25.431 4.42188 26.5363 5.50833 26.5363 6.84375V28.1804C26.5362 28.8492 27.0878 29.3914 27.7681 29.3914Z" fill="#333333"/>
<path d="M22.8406 9.26562H10.1524C9.47207 9.26562 8.92056 9.80776 8.92056 10.4766C8.92056 11.1454 9.47207 11.6875 10.1524 11.6875H22.8406C23.521 11.6875 24.0725 11.1454 24.0725 10.4766C24.0725 9.80776 23.5209 9.26562 22.8406 9.26562Z" fill="#333333"/>
<path d="M22.8406 14.1094H10.1524C9.47207 14.1094 8.92056 14.6515 8.92056 15.3203C8.92056 15.9891 9.47207 16.5312 10.1524 16.5312H22.8406C23.521 16.5312 24.0725 15.9891 24.0725 15.3203C24.0725 14.6515 23.5209 14.1094 22.8406 14.1094Z" fill="#333333"/>
<path d="M17.8583 18.9531H10.1524C9.47207 18.9531 8.92056 19.4953 8.92056 20.1641C8.92056 20.8329 9.47207 21.375 10.1524 21.375H17.8585C18.5388 21.375 19.0903 20.8329 19.0903 20.1641C19.0902 19.4953 18.5387 18.9531 17.8583 18.9531Z" fill="#333333"/>
</svg>
