<svg width="35" height="35" viewBox="0 0 35 35" fill="none" xmlns="http://www.w3.org/2000/svg">
<path d="M17.5 8.75C19.3122 8.75 20.7812 7.28093 20.7812 5.46875C20.7812 3.65657 19.3122 2.1875 17.5 2.1875C15.6878 2.1875 14.2188 3.65657 14.2188 5.46875C14.2188 7.28093 15.6878 8.75 17.5 8.75Z" fill="#333333"/>
<path d="M17.5 20.7812C19.3122 20.7812 20.7812 19.3122 20.7812 17.5C20.7812 15.6878 19.3122 14.2188 17.5 14.2188C15.6878 14.2188 14.2188 15.6878 14.2188 17.5C14.2188 19.3122 15.6878 20.7812 17.5 20.7812Z" fill="#333333"/>
<path d="M17.5 32.8125C19.3122 32.8125 20.7812 31.3434 20.7812 29.5312C20.7812 27.7191 19.3122 26.25 17.5 26.25C15.6878 26.25 14.2188 27.7191 14.2188 29.5312C14.2188 31.3434 15.6878 32.8125 17.5 32.8125Z" fill="#333333"/>
</svg>
