<svg width="35" height="35" viewBox="0 0 35 35" fill="none" xmlns="http://www.w3.org/2000/svg">
<path d="M13 16.4794V19.3133C13 20.7977 14.2023 22 15.6867 22H18.5206C19.2444 22 19.9191 21.7178 20.4221 21.2149L31.2179 10.419C32.2607 9.364 32.2607 7.65876 31.2179 6.61598L28.384 3.78208C27.329 2.73931 25.6237 2.73931 24.581 3.78208L13.7851 14.5779C13.2822 15.0809 13 15.7679 13 16.4794ZM15.4536 16.4794C15.4536 16.4181 15.4781 16.3567 15.5272 16.3077L26.323 5.51186C26.323 5.51186 26.4334 5.43826 26.4948 5.43826C26.5561 5.43826 26.6174 5.46279 26.6665 5.51186L29.5004 8.34576C29.5985 8.44391 29.5985 8.59112 29.5004 8.68926L18.7046 19.4851C18.7046 19.4851 18.5942 19.5587 18.5328 19.5587H15.699C15.564 19.5587 15.4659 19.4483 15.4659 19.3256V16.4917L15.4536 16.4794Z" fill="#333333" stroke="#333333" stroke-width="0.2"/>
<path d="M30.6207 17.4535C30.2602 17.4535 29.9145 17.5967 29.6596 17.8516C29.4046 18.1065 29.2614 18.4523 29.2614 18.8128V25.2845C29.2602 26.3413 28.8399 27.3545 28.0926 28.1018C27.3453 28.849 26.3321 29.2694 25.2753 29.2706H9.70469C8.64787 29.2694 7.63469 28.849 6.8874 28.1018C6.14012 27.3545 5.71977 26.3413 5.71858 25.2845V9.71384C5.71977 8.65703 6.14012 7.64384 6.8874 6.89656C7.63469 6.14928 8.64787 5.72893 9.70469 5.72773H16.1764C16.5369 5.72773 16.8826 5.58452 17.1375 5.3296C17.3925 5.07469 17.5357 4.72895 17.5357 4.36844C17.5357 4.00794 17.3925 3.6622 17.1375 3.40728C16.8826 3.15237 16.5369 3.00916 16.1764 3.00916H9.70469C7.92714 3.01125 6.22299 3.71831 4.96608 4.97523C3.70916 6.23215 3.0021 7.93629 3 9.71384V25.2845C3.0021 27.062 3.70916 28.7662 4.96608 30.0231C6.22299 31.28 7.92714 31.9871 9.70469 31.9892H25.2753C27.0529 31.9871 28.757 31.28 30.0139 30.0231C31.2709 28.7662 31.9779 27.062 31.98 25.2845V18.8128C31.98 18.4523 31.8368 18.1065 31.5819 17.8516C31.327 17.5967 30.9812 17.4535 30.6207 17.4535Z" fill="#333333"/>
</svg>
