<?xml version="1.0" encoding="UTF-8"?><svg id="a" xmlns="http://www.w3.org/2000/svg" xmlns:xlink="http://www.w3.org/1999/xlink" viewBox="0 0 155.19 112.72"><defs><clipPath id="b"><rect x="0" width="155.19" height="112.72" fill="none"/></clipPath></defs><g clip-path="url(#b)"><path d="M80,89.08c.54-.77,1.28-.96,1.9-1.3,3.72-2.02,7.46-4,11.17-6.03,6.53-3.57,7.77-12.62,2.25-17.61-3.18-2.87-6.7-5.34-10.1-7.96-.62-.48-.96-.75-.27-1.55,3.44-4.03,2.86-9.15-1.36-12.39-2.66-2.04-5.35-4.02-8.02-6.03-.41-.31-.81-.63-1.28-1,.54-.48,1.06-.19,1.52-.15,20.68,1.87,41.34,3.99,62.05,5.52,6.64.49,11.82,8.46,9.23,14.69-1.77,4.26-1.68,4.33-5.97,2.89-15.19-5.11-30.39-10.19-45.59-15.28-1.65-.55-2.99,0-3.51,1.36-.54,1.44.13,2.76,1.91,3.38,4.89,1.69,9.79,3.31,14.7,4.95,8.07,2.7,16.13,5.42,24.22,8.08,1.29.42,1.21.84.28,1.54-.84.63-1.66,1.27-2.52,1.87-1.55,1.09-2,2.44-1.19,3.72.84,1.32,2.34,1.51,3.98.45,1.86-1.19,3.55-2.59,4.97-4.28.67-.79,1.33-1.02,2.32-.63,1.31.52,2.67.91,4.01,1.35,1.13.37,2.25.32,3.01-.67,3.62-4.72,6.12-9.86,4.72-16.02-1.25-5.47-4.85-9.19-9.73-11.65-1.44-.72-3.18-.49-4.78-.64-23.9-2.2-47.81-4.34-71.7-6.57-2.4-.22-4.77-.47-7.17-.15-1.15.15-1.35-.24-1.08-1.31.86-3.35,1.63-6.73,2.45-10.09,1.53-6.31-1.42-11.22-7.67-12.94-4.98-1.37-9.93-2.87-14.9-4.31-2.57-.74-3.55-.28-4.41,2.25-1.31,3.87-2.21,7.78-.66,11.82.08.19.12.43.25.57,1.98,2,1.31,4.17.44,6.36-1.52,3.86-.85,7.17,2.35,9.91.83.71,1.5,1.61,2.31,2.35,1.16,1.05,2.54,1.04,3.51.07,1-1,1.06-2.34.04-3.51-.89-1.03-1.84-2.01-2.83-2.93-1.1-1.01-1.42-2.12-.89-3.53.41-1.08.45-2.46,1.18-3.2.76-.77,2.04.16,3.12.18,1.62.02,3.24.14,4.83-.22,1.63-.37,2.47-1.51,2.25-2.9-.22-1.44-1.45-2.3-3.16-2.07-1.4.2-2.8.31-4.21.11-3.44-.5-5.15-2.58-4.99-6.06.18-4.02.29-4.11,4.05-3.04,3.62,1.03,7.23,2.07,10.83,3.14,3.28.98,4.53,3.1,3.75,6.47-1.12,4.91-2.33,9.79-3.49,14.69-.66,2.76.52,4.15,3.36,3.83,1.76-.19,3.51-.53,5.26-.79,1.84-.27,3.51.09,5.02,1.23,4.92,3.72,9.87,7.4,14.78,11.13,2.33,1.77,2.26,4.19-.2,5.79-6.74,4.4-13.51,8.75-20.28,13.1-1.25.8-2.6,1.12-3.99.35-1.19-.66-1.55-1.8-1.55-3.06,0-1.51,1.01-2.33,2.15-3.05,4.12-2.58,8.23-5.17,12.34-7.76,2.82-1.78,2.87-3.42.21-5.4-1.55-1.15-3.07-2.36-4.64-3.48-1.49-1.07-3.04-.94-3.9.24-.87,1.18-.51,2.59.96,3.78,2.47,2,2.48,2.01-.2,3.73-2.81,1.81-5.7,3.5-8.46,5.4-2.98,2.05-4.18,5.64-3.24,9.01.96,3.43,3.96,5.87,7.55,6.1,1.88.12,3.6-.39,5.19-1.42,5.17-3.36,10.38-6.66,15.51-10.08,1.28-.85,2.17-.95,3.41.07,3.2,2.61,6.54,5.04,9.79,7.6,3.86,3.04,3.4,8.13-.92,10.48-5.37,2.91-10.76,5.8-16.14,8.69-1.13.61-2.22,1.24-2.19,2.77.03,1.52,1.13,2.12,2.27,2.72,6.07,3.16,12.14,6.33,18.21,9.49,1.31.68,2.42,1.53,2.4,3.19-.03,2.58-2.47,4.03-4.91,2.83-3.24-1.58-6.42-3.27-9.63-4.93-5.66-2.92-11.33-5.84-16.99-8.78-4.25-2.21-4.46-6.6-.39-9.15,4.74-2.97,9.53-5.85,14.29-8.77.44-.27.9-.54,1.3-.87,1.14-.93,1.41-2.28.7-3.35-.76-1.14-2.18-1.51-3.44-.76-3.23,1.92-6.43,3.9-9.64,5.87-2.09,1.28-4.21,2.53-6.26,3.89-6.82,4.52-6.4,13.59.82,17.43,4.8,2.55,9.66,4.98,14.49,7.47,4.28,2.2,8.51,4.48,12.84,6.56,4.59,2.21,9.74-.03,11.36-4.74,1.32-3.86-.23-7.84-4.1-10-3.78-2.12-7.67-4.04-11.52-6.06-1.24-.65-2.47-1.31-3.75-1.98h0Z" fill="#333"/><path d="M.08,20.33c.55,3.2,1.85,5.01,3.94,6.26,14.3,8.55,28.62,17.09,42.92,25.63.58.35,1.17.7,1.79.98,1.22.55,2.29.27,3.02-.83.77-1.16.61-2.34-.43-3.26-.66-.58-1.47-.98-2.24-1.43-13.63-8.14-27.27-16.28-40.91-24.42-.49-.29-.98-.6-1.45-.93-1.73-1.18-2.16-2.6-1.29-4.14.81-1.43,2.53-1.83,4.23-.85,3.07,1.77,6.11,3.63,9.16,5.44,2.16,1.28,4.3,2.59,6.48,3.81,1.52.86,2.8.57,3.55-.67.76-1.25.37-2.75-1.08-3.62-5.37-3.23-10.73-6.48-16.18-9.59-2.84-1.62-5.77-1.34-8.39.62C.64,15.26-.29,17.92.08,20.33Z" fill="#333"/><path d="M107.23,67.3c.23.91.93,1.36,1.65,1.8,4.22,2.55,8.43,5.11,12.66,7.65,13.11,7.89,27.38,16.34,29.74,17.74,1.69,1,2.91.82,3.62-.47.67-1.23.21-2.4-1.33-3.34-7.25-4.38-29.56-17.68-41.79-25.05-.56-.34-1.12-.69-1.71-.94-.8-.33-1.56-.12-2.2.43-.67.57-.81,1.33-.62,2.16h0Z" fill="#333"/><path d="M134.32,97.69c.88-.26,1.44-.83,1.6-1.75.18-.99-.21-1.76-1.02-2.28-1.21-.78-7.74-4.64-17.72-10.59-2.75-1.64-5.48-3.34-8.25-4.95-1.5-.88-2.8-.53-3.42.8-.49,1.05-.17,2.15.98,2.88,2.28,1.44,4.6,2.82,6.91,4.2,11.46,6.84,6.99,4.16,18.46,10.99.76.45,1.5.98,2.47.68h0Z" fill="#333"/><path d="M116.49,100.96c.94-.26,1.49-.72,1.7-1.52.21-.83.03-1.59-.6-2.18-.27-.25-.6-.44-.92-.63-6.02-3.52-8.75-5.11-14.78-8.62-2.02-1.17-3.24-1.09-4.03.25-.8,1.35-.27,2.49,1.72,3.65,5.96,3.45,8.63,4.96,14.59,8.4.78.45,1.55.88,2.33.64Z" fill="#333"/></g></svg>