<svg width="35" height="35" viewBox="0 0 35 35" fill="none" xmlns="http://www.w3.org/2000/svg">
<path d="M18.8264 4.20642C15.9039 4.22064 13.0687 5.20395 10.7649 7.00229C8.4612 8.80062 6.8191 11.3124 6.09593 14.144L5.21129 12.8062C5.12755 12.6661 5.0163 12.5445 4.88426 12.4486C4.75222 12.3527 4.60213 12.2845 4.44303 12.2482C4.28394 12.2119 4.11913 12.2082 3.95856 12.2373C3.79798 12.2664 3.64496 12.3277 3.50873 12.4175C3.3725 12.5074 3.25587 12.6239 3.16588 12.76C3.0759 12.8961 3.01441 13.0491 2.98514 13.2096C2.95587 13.3702 2.95942 13.535 2.99557 13.6941C3.03173 13.8533 3.09973 14.0034 3.19549 14.1356L5.85422 18.1648C6.03891 18.4232 6.3112 18.6057 6.62042 18.6784C6.93617 18.741 7.26389 18.6781 7.53406 18.5031L11.5222 15.8166C11.6597 15.7307 11.7785 15.6181 11.8715 15.4853C11.9646 15.3526 12.03 15.2025 12.0639 15.044C12.0977 14.8854 12.0994 14.7217 12.0686 14.5625C12.0379 14.4033 11.9755 14.252 11.885 14.1174C11.7946 13.9829 11.678 13.8679 11.5423 13.7793C11.4065 13.6908 11.2543 13.6304 11.0947 13.6019C10.9351 13.5734 10.7714 13.5772 10.6133 13.6133C10.4553 13.6493 10.3061 13.7168 10.1747 13.8117L8.36068 15.0347C8.84346 13.075 9.86737 11.2904 11.3156 9.88458C12.7638 8.47877 14.578 7.50835 16.5513 7.08403C18.5245 6.6597 20.5772 6.79857 22.4753 7.48478C24.3734 8.17099 26.0404 9.37692 27.2861 10.965C28.5318 12.553 29.306 14.4592 29.5205 16.4661C29.7349 18.473 29.3809 20.4998 28.4989 22.3152C27.6169 24.1306 26.2423 25.6615 24.5321 26.7333C22.8218 27.805 20.8447 28.3745 18.8264 28.3767C17.0962 28.372 15.3928 27.9496 13.8608 27.1455C12.3289 26.3413 11.0137 25.1791 10.0272 23.7577C9.93887 23.6221 9.82416 23.5055 9.6899 23.4151C9.55564 23.3246 9.40456 23.262 9.24565 23.231C9.08674 23.2001 8.92322 23.2014 8.76482 23.2348C8.60641 23.2683 8.45634 23.3332 8.32351 23.4258C8.19069 23.5184 8.07782 23.6367 7.99161 23.7737C7.90539 23.9107 7.84759 24.0637 7.82164 24.2235C7.79568 24.3833 7.8021 24.5467 7.84052 24.704C7.87893 24.8613 7.94856 25.0092 8.04526 25.1391C9.64903 27.4512 11.9522 29.1878 14.6162 30.0938C17.2802 30.9998 20.1646 31.0274 22.8455 30.1725C25.5263 29.3175 27.8622 27.6252 29.5099 25.3442C31.1575 23.0632 32.0301 20.3138 31.9992 17.5001C32.0111 13.9916 30.6309 10.6217 28.1614 8.1296C25.6919 5.63745 22.3348 4.22656 18.8264 4.20642Z" fill="#333333"/>
<path d="M18.7056 10.1886C18.385 10.1886 18.0776 10.3159 17.851 10.5426C17.6244 10.7692 17.497 11.0766 17.497 11.3971V17.5001C17.5022 17.8196 17.6288 18.1251 17.8511 18.3545L21.4767 22.0127C21.7042 22.2366 22.0102 22.3628 22.3294 22.3644C22.6486 22.366 22.9558 22.2428 23.1855 22.0212C23.413 21.7955 23.5416 21.4887 23.543 21.1682C23.5443 20.8478 23.4184 20.5399 23.1928 20.3123L19.9141 17.0034V11.3971C19.9141 11.0766 19.7867 10.7692 19.5601 10.5426C19.3335 10.3159 19.0261 10.1886 18.7056 10.1886Z" fill="#333333"/>
</svg>
