<svg width="35" height="35" viewBox="0 0 35 35" fill="none" xmlns="http://www.w3.org/2000/svg">
<path d="M13.8495 18.2301C13.7998 17.9813 12.0874 9.41935 12.0331 9.14804C11.9483 8.72355 11.5755 8.41797 11.1426 8.41797H9.32619C8.89328 8.41797 8.52049 8.72355 8.43566 9.14804C8.3805 9.42395 6.66636 17.9946 6.61926 18.2301C6.52087 18.722 6.83989 19.2004 7.33171 19.2987C7.82353 19.3971 8.30204 19.0781 8.40036 18.5863L8.98089 15.6836H11.4879L12.0684 18.5863C12.1668 19.0784 12.6455 19.3972 13.1371 19.2988C13.6289 19.2004 13.9479 18.722 13.8495 18.2301ZM9.34417 13.8672L10.0707 10.2344H10.398L11.1246 13.8672H9.34417Z" fill="#333333" stroke="#333333" stroke-width="0.6"/>
<path d="M28.3984 15.6836H25.6738V14.7754C25.6738 14.2738 25.2672 13.8672 24.7656 13.8672C24.2641 13.8672 23.8574 14.2738 23.8574 14.7754V15.6836H21.1328C20.6312 15.6836 20.2246 16.0902 20.2246 16.5918C20.2246 17.0934 20.6312 17.5 21.1328 17.5H21.3526C21.8701 19.1718 22.6492 20.4551 23.5066 21.4834C22.8087 22.1217 22.1027 22.6451 21.4737 23.1482C21.082 23.4616 21.0185 24.0331 21.3319 24.4247C21.6454 24.8166 22.217 24.8798 22.6084 24.5665C23.2409 24.0606 23.999 23.4983 24.7656 22.7947C25.5328 23.4987 26.2923 24.0621 26.9228 24.5665C27.3145 24.8799 27.8861 24.8164 28.1994 24.4247C28.5127 24.0331 28.4492 23.4615 28.0576 23.1482C27.4302 22.6462 26.7232 22.1223 26.0247 21.4834C26.882 20.4551 27.6612 19.1718 28.1787 17.5H28.3984C28.9 17.5 29.3066 17.0934 29.3066 16.5918C29.3066 16.0902 28.9 15.6836 28.3984 15.6836ZM24.7656 20.1486C24.1859 19.4208 23.6643 18.5522 23.2711 17.4939H26.26C25.8669 18.5522 25.3454 19.4208 24.7656 20.1486Z" fill="#333333" stroke="#333333" stroke-width="0.6"/>
<path d="M30.2754 7.50977H17.173L16.7837 4.38664C16.6136 3.02603 15.4513 2 14.0801 2H4.72461C3.22226 2 2 3.22226 2 4.72461V24.7656C2 26.268 3.22226 27.4902 4.72461 27.4902H12.3828L12.7671 30.6134C12.9369 31.9712 14.0991 33 15.4707 33H30.2754C31.7777 33 33 31.7777 33 30.2754V10.2344C33 8.73203 31.7777 7.50977 30.2754 7.50977ZM4.72461 25.6738C4.22383 25.6738 3.81641 25.2664 3.81641 24.7656V4.72461C3.81641 4.22383 4.22383 3.81641 4.72461 3.81641H14.0801C14.5372 3.81641 14.9246 4.15838 14.9812 4.61163C15.1129 5.66732 17.4763 24.6266 17.6068 25.6738H4.72461ZM14.5165 29.9575L14.2128 27.4902H16.6495L14.5165 29.9575ZM31.1836 30.2754C31.1836 30.7762 30.7762 31.1836 30.2754 31.1836H15.8576L19.3151 27.1843C19.4921 26.9847 19.5714 26.7197 19.5348 26.4563L17.3994 9.32617H30.2754C30.7762 9.32617 31.1836 9.73359 31.1836 10.2344V30.2754Z" fill="#333333" stroke="#333333" stroke-width="0.6"/>
</svg>
