<svg width="35" height="35" viewBox="0 0 35 35" fill="none" xmlns="http://www.w3.org/2000/svg">
<path d="M28.6503 28.771L21.9804 21.5827C23.4382 19.7641 24.237 17.4759 24.237 15.0937C24.237 9.52814 19.922 5 14.6185 5C9.31494 5 5 9.52814 5 15.0937C5 20.6593 9.31494 25.1875 14.6185 25.1875C16.6095 25.1875 18.5069 24.5573 20.1291 23.361L26.842 30.5963C27.0808 30.8565 27.402 31 27.7462 31C28.0719 31 28.381 30.8697 28.6156 30.6327C29.1141 30.1293 29.13 29.2946 28.6503 28.771ZM14.6185 7.63315C18.5387 7.63315 21.7278 10.9799 21.7278 15.0937C21.7278 19.2076 18.5387 22.5543 14.6185 22.5543C10.6983 22.5543 7.50917 19.2076 7.50917 15.0937C7.50917 10.9799 10.6983 7.63315 14.6185 7.63315Z" fill="#333333"/>
</svg>
