<svg width="35" height="35" viewBox="0 0 35 35" fill="none" xmlns="http://www.w3.org/2000/svg">
<path d="M32 8.59735C32 8.20407 31.7652 7.84971 31.4056 7.70023L17.8643 2.07274C17.6309 1.97575 17.3691 1.97575 17.1357 2.07274L3.59441 7.70023C3.23483 7.84965 3 8.20407 3 8.59735V26.4027C3 26.7959 3.23477 27.1503 3.59441 27.2998L17.1357 32.9273C17.3666 33.0232 17.6262 33.0253 17.8631 32.9272C17.8747 32.9233 17.362 33.136 31.4056 27.2998C31.7652 27.1504 32 26.7959 32 26.4027V8.59735ZM17.5 13.2579L12.5106 11.1844L23.2933 6.42596L28.6164 8.63815L17.5 13.2579ZM4.91745 10.1259L9.22219 11.9148V16.962C9.22219 17.4976 9.65146 17.9318 10.1809 17.9318C10.7104 17.9318 11.1396 17.4976 11.1396 16.962V12.7117L16.5413 14.9565V30.5832L4.91745 25.7525V10.1259ZM17.5 4.01834L20.8235 5.39954L10.0408 10.158L6.38358 8.63809L17.5 4.01834ZM18.4587 14.9565L30.0826 10.1259V25.7525L18.4587 30.5832V14.9565Z" fill="#333333"/>
<path fill-rule="evenodd" clip-rule="evenodd" d="M17.0398 1.84187C17.3346 1.71938 17.6654 1.71938 17.9602 1.84187L31.5015 7.46937C31.9556 7.65812 32.25 8.10437 32.25 8.59735V26.4027C32.25 26.8956 31.9557 27.3419 31.5015 27.5306C31.5015 27.5306 31.5015 27.5306 31.5015 27.5306L18.105 33.0979L17.9672 33.155L17.9579 33.1588L17.9526 33.1608L17.9497 33.1619C17.6534 33.2818 17.3286 33.2781 17.0398 33.1581L3.49847 27.5306C3.04434 27.3419 2.75 26.8956 2.75 26.4027V8.59735C2.75 8.1044 3.04439 7.65806 3.49848 7.46937L17.0398 1.84187ZM17.8921 33.1754C17.8891 33.1757 17.8858 33.176 17.8826 33.1763C17.8837 33.1763 17.8847 33.1762 17.8856 33.1762C17.8875 33.176 17.8898 33.1757 17.8921 33.1754ZM17.8478 33.1751C17.8274 33.171 17.7974 33.1617 17.7666 33.1488C17.7798 33.1584 17.7922 33.1656 17.8029 33.1697C17.8159 33.1722 17.8325 33.174 17.8478 33.1751ZM17.653 33.0256C17.6342 32.9576 17.6322 32.8808 17.6407 32.8311C17.6279 32.8652 17.6164 32.9061 17.6137 32.9411C17.6207 32.9684 17.6349 32.9976 17.653 33.0256ZM17.6666 32.7743C17.6748 32.7644 17.6835 32.7546 17.6903 32.7474C17.6838 32.7538 17.6767 32.761 17.6715 32.7668C17.67 32.7688 17.6684 32.7713 17.6666 32.7743ZM17.7364 32.7118C17.7383 32.7107 17.7403 32.7095 17.742 32.7086C17.7451 32.7069 17.7468 32.706 17.7432 32.7079C17.743 32.708 17.7402 32.7096 17.7364 32.7118ZM17.2316 2.30361L3.69035 7.93109C3.42527 8.04124 3.25 8.30375 3.25 8.59735V26.4027C3.25 26.6962 3.4252 26.9587 3.69036 27.0689L17.2316 32.6964C17.4017 32.7671 17.5924 32.7687 17.7675 32.6962L17.7754 32.6929L17.779 32.6917L17.9133 32.6361L31.3097 27.0689C31.5748 26.9588 31.75 26.6963 31.75 26.4027V8.59735C31.75 8.30378 31.5748 8.0413 31.3096 7.93108L17.7684 2.30361C17.7684 2.3036 17.7684 2.30361 17.7684 2.30361C17.5964 2.23214 17.4036 2.23213 17.2316 2.30361ZM17.7721 32.6946C17.7666 32.6968 17.768 32.696 17.7731 32.6941L17.7721 32.6946ZM17.8523 32.678C17.8556 32.6778 17.8587 32.6776 17.8615 32.6775C17.8643 32.6777 17.8677 32.6781 17.8715 32.6787C17.8645 32.6783 17.8579 32.6781 17.8523 32.678ZM17.9638 32.7083C17.9995 32.7351 18.0406 32.7785 18.0714 32.8252C18.0635 32.7978 18.0528 32.7719 18.0389 32.7501C18.0177 32.7341 17.9906 32.7198 17.9638 32.7083ZM18.0841 33.0281C18.0763 33.0484 18.0682 33.0658 18.0615 33.0775C18.0662 33.0717 18.0707 33.0659 18.0744 33.0605C18.0784 33.0524 18.0816 33.0413 18.0841 33.0281ZM18.0293 33.1137C18.0276 33.1153 18.0261 33.1166 18.0248 33.1179C18.0251 33.1176 18.0255 33.1173 18.0258 33.117C18.0268 33.1161 18.028 33.115 18.0293 33.1137ZM17.5 3.74761L21.4584 5.39264L10.0438 10.4299L5.73213 8.63809L17.5 3.74761ZM7.03503 8.63809L10.0379 9.88602L20.1887 5.40644L17.5 4.28907L7.03503 8.63809ZM23.2903 6.154L29.2679 8.63815L17.5 13.5286L11.8757 11.1913L23.2903 6.154ZM23.2962 6.69791L13.1454 11.1775L17.5 12.9872L27.965 8.63815L23.2962 6.69791ZM4.66745 9.75123L9.47219 11.748V16.962C9.47219 17.3622 9.79224 17.6818 10.1809 17.6818C10.5696 17.6818 10.8896 17.3622 10.8896 16.962V12.3371L16.7913 14.7896V30.9578L4.66745 25.9194V9.75123ZM30.3326 9.75123V25.9194L18.2087 30.9578V14.7896L30.3326 9.75123ZM5.16745 10.5005V25.5857L16.2913 30.2085V15.1233L11.3896 13.0863V16.962C11.3896 17.6329 10.8512 18.1818 10.1809 18.1818C9.51067 18.1818 8.97219 17.6329 8.97219 16.962V12.0817L5.16745 10.5005ZM18.7087 15.1233V30.2085L29.8326 25.5857V10.5005L18.7087 15.1233Z" fill="#333333"/>
</svg>
