<svg width="35" height="35" viewBox="0 0 35 35" fill="none" xmlns="http://www.w3.org/2000/svg">
<path d="M23.3403 15.3203C23.3403 14.6515 22.7981 14.1094 22.1293 14.1094H9.65668C8.98788 14.1094 8.44574 14.6515 8.44574 15.3203C8.44574 15.9891 8.98788 16.5312 9.65668 16.5312H22.1293C22.7981 16.5312 23.3403 15.9891 23.3403 15.3203Z" fill="#333333"/>
<path d="M9.65668 18.9531C8.98788 18.9531 8.44574 19.4953 8.44574 20.1641C8.44574 20.8329 8.98788 21.375 9.65668 21.375H16.2318C16.9006 21.375 17.4427 20.8329 17.4427 20.1641C17.4427 19.4953 16.9006 18.9531 16.2318 18.9531H9.65668Z" fill="#333333"/>
<path d="M16.5024 30.5781H8.45251C7.11709 30.5781 6.03064 29.4917 6.03064 28.1562V6.84375C6.03064 5.50833 7.11709 4.42188 8.45251 4.42188H23.3403C24.6757 4.42188 25.7622 5.50833 25.7622 6.84375V15.291C25.7622 15.9598 26.3043 16.502 26.9731 16.502C27.6419 16.502 28.1841 15.9598 28.1841 15.291V6.84375C28.1841 4.17291 26.0112 2 23.3403 2H8.45251C5.78167 2 3.60876 4.17291 3.60876 6.84375V28.1562C3.60876 30.8271 5.78167 33 8.45251 33H16.5024C17.1712 33 17.7134 32.4579 17.7134 31.7891C17.7134 31.1203 17.1712 30.5781 16.5024 30.5781Z" fill="#333333"/>
<path d="M22.1293 9.26562H9.65668C8.98788 9.26562 8.44574 9.80776 8.44574 10.4766C8.44574 11.1454 8.98788 11.6875 9.65668 11.6875H22.1293C22.7981 11.6875 23.3403 11.1454 23.3403 10.4766C23.3403 9.80776 22.7981 9.26562 22.1293 9.26562Z" fill="#333333"/>
<path d="M31.7847 31.6501L29.4561 29.0426C30.3538 27.9412 30.8456 26.5555 30.8456 25.1128C30.8456 21.7423 28.1886 19 24.9228 19C21.657 19 19 21.7423 19 25.1128C19 28.4834 21.657 31.2257 24.9228 31.2257C26.1488 31.2257 27.3172 30.844 28.3161 30.1195L30.6712 32.7555C30.8182 32.9131 31.016 33 31.2279 33C31.4285 33 31.6188 32.9211 31.7633 32.7775C32.0702 32.4727 32.08 31.9672 31.7847 31.6501ZM24.9228 20.5947C27.3367 20.5947 29.3005 22.6215 29.3005 25.1128C29.3005 27.6042 27.3367 29.631 24.9228 29.631C22.5089 29.631 20.5451 27.6042 20.5451 25.1128C20.5451 22.6215 22.5089 20.5947 24.9228 20.5947Z" fill="#333333"/>
<path fill-rule="evenodd" clip-rule="evenodd" d="M18.7 25.1128C18.7 21.5855 21.4825 18.7 24.9228 18.7C28.3631 18.7 31.1456 21.5855 31.1456 25.1128C31.1456 26.5368 30.688 27.9093 29.8469 29.0298L32.0065 31.4481C32.4097 31.8836 32.3959 32.572 31.9747 32.9903C31.7749 33.1889 31.5089 33.3 31.2279 33.3C30.9312 33.3 30.6545 33.1773 30.4518 32.9601L30.4474 32.9554L28.269 30.517C27.27 31.1779 26.1224 31.5256 24.9228 31.5256C21.4825 31.5256 18.7 28.64 18.7 25.1128ZM24.9228 19.3C21.8316 19.3 19.3 21.8989 19.3 25.1128C19.3 28.3267 21.8316 30.9256 24.9228 30.9256C26.0849 30.9256 27.1917 30.5643 28.1399 29.8766L28.3593 29.7175L30.8925 32.5529C30.9837 32.6495 31.1018 32.7 31.2279 32.7C31.3482 32.7 31.4628 32.6531 31.5519 32.5647C31.7438 32.3741 31.7503 32.0533 31.5652 31.8546L31.5609 31.8499L29.0618 29.0514L29.2235 28.853C30.0771 27.8057 30.5456 26.4871 30.5456 25.1128C30.5456 21.8989 28.0141 19.3 24.9228 19.3ZM24.9228 20.8946C22.6834 20.8946 20.8451 22.7781 20.8451 25.1128C20.8451 27.4475 22.6834 29.331 24.9228 29.331C27.1622 29.331 29.0005 27.4475 29.0005 25.1128C29.0005 22.7781 27.1622 20.8946 24.9228 20.8946ZM20.2451 25.1128C20.2451 22.4647 22.3343 20.2946 24.9228 20.2946C27.5113 20.2946 29.6005 22.4647 29.6005 25.1128C29.6005 27.7608 27.5113 29.931 24.9228 29.931C22.3343 29.931 20.2451 27.7608 20.2451 25.1128Z" fill="#333333"/>
</svg>
