<svg width="35" height="35" viewBox="0 0 35 35" fill="none" xmlns="http://www.w3.org/2000/svg">
<path d="M31.7511 10.1236C31.9105 9.96431 32 9.74823 32 9.52291C32 9.29754 31.9105 9.08151 31.7511 8.92218L26.945 4.11604C26.6133 3.78424 26.0753 3.78424 25.7435 4.11604L17.9336 11.9259L11.6601 5.65248C11.6599 5.65231 11.6598 5.65208 11.6596 5.65191C11.5673 5.55959 11.4462 5.48652 11.3275 5.44665L4.1183 3.04361C3.81295 2.94188 3.47645 3.02129 3.24887 3.24887C3.02129 3.47646 2.94188 3.81301 3.04361 4.11831L5.44664 11.3275C5.48549 11.4439 5.55879 11.5665 5.6519 11.6596L11.9259 17.9336L4.11604 25.7436C3.78424 26.0754 3.78424 26.6133 4.11604 26.9451L8.92216 31.7512C9.25373 32.0828 9.79193 32.083 10.1237 31.7512C10.9869 30.888 17.009 24.866 17.9336 23.9413L25.2386 31.2463C26.2343 32.242 27.8436 32.2461 28.8392 31.2503L31.2504 28.8389C32.2461 27.8431 32.2454 26.2377 31.249 25.2413L23.9412 17.9336C24.8462 17.0286 30.856 11.0187 31.7511 10.1236ZM25.2385 21.6339L24.037 22.8355L9.85724 8.65574L11.0588 7.45417C11.0588 7.45417 17.3327 13.7281 17.3328 13.7282C17.3329 13.7283 17.333 13.7284 17.3331 13.7285C17.3521 13.7475 25.1225 21.5179 25.2385 21.6339ZM27.6416 24.037L24.0369 27.6416L22.8354 26.4401L26.44 22.8354L27.6416 24.037ZM7.45421 11.0588L8.65572 9.85721L22.8355 24.037L21.6339 25.2385L7.45421 11.0588ZM9.48601 6.62393L6.62397 9.48598L5.19294 5.19295L9.48601 6.62393ZM15.5305 23.9413L14.9297 23.3405C14.598 23.0087 14.06 23.0087 13.7282 23.3405C13.3964 23.6723 13.3964 24.2102 13.7282 24.542L14.329 25.1428L13.1275 26.3443L12.5268 25.7436C12.195 25.4118 11.657 25.4118 11.3252 25.7436C10.9934 26.0754 10.9934 26.6133 11.3252 26.9451L11.926 27.5459L9.52294 29.9489L5.9184 26.3443L13.1275 19.1351L16.7322 22.7397L15.5305 23.9413ZM30.0488 27.6374L27.6375 30.0488C27.3066 30.3798 26.773 30.3776 26.4401 30.0448L25.2385 28.8431L28.8431 25.2385L30.0475 26.4429C30.3788 26.7742 30.3814 27.3049 30.0488 27.6374ZM19.1351 13.1274L26.3442 5.91829L29.9488 9.52286L27.5458 11.926L26.945 11.3252C26.6133 10.9934 26.0753 10.9934 25.7435 11.3252C25.4117 11.657 25.4117 12.1949 25.7435 12.5267L26.3443 13.1274L25.1428 14.3289L24.542 13.7281C24.2102 13.3963 23.6723 13.3963 23.3405 13.7281C23.0087 14.0599 23.0087 14.5979 23.3405 14.9297L23.9412 15.5305L22.7397 16.732L19.1351 13.1274Z" fill="#333333"/>
<path fill-rule="evenodd" clip-rule="evenodd" d="M3.14281 3.14279C3.41058 2.87502 3.8065 2.7816 4.16572 2.90128L11.375 5.30432C11.5148 5.35131 11.6564 5.43653 11.7657 5.54583C11.7665 5.54671 11.7674 5.54755 11.7681 5.54833L17.9336 11.7137L25.6374 4.00996C26.0278 3.61958 26.6608 3.61957 27.0511 4.00997L31.8572 8.81609C32.0446 9.00354 32.15 9.25771 32.15 9.52289C32.15 9.78801 32.0446 10.0422 31.8572 10.2297L24.1534 17.9335L31.3551 25.1352C32.41 26.1901 32.4108 27.8905 31.3564 28.945L28.9453 31.3563C27.8907 32.4111 26.1865 32.4063 25.1325 31.3523L17.9336 24.1534L10.2297 31.8573C9.8394 32.2477 9.20622 32.2474 8.8161 31.8573L4.00998 27.0511C3.6196 26.6608 3.6196 26.0279 4.00998 25.6375L11.7138 17.9336L5.54584 11.7656C5.4357 11.6555 5.35032 11.5127 5.30435 11.3749L2.90131 4.16572C2.78163 3.80655 2.87505 3.41055 3.14281 3.14279ZM4.07088 3.18589C3.81941 3.10212 3.54234 3.16752 3.35494 3.35492C3.16755 3.54231 3.10215 3.81944 3.18592 4.07085M3.18592 4.07085L5.58893 11.28C5.58893 11.28 5.58894 11.28 5.58893 11.28C5.62069 11.3751 5.6819 11.4774 5.75797 11.5535L12.1381 17.9336L4.22211 25.8496C3.94889 26.1228 3.94889 26.5658 4.22211 26.839L9.02823 31.6451C9.30126 31.9182 9.74447 31.9183 10.0176 31.6452L17.9336 23.7291L25.3447 31.1402C26.2821 32.0776 27.7964 32.0811 28.7331 31.1442L31.1443 28.7329C32.0814 27.7957 32.0809 26.2852 31.1429 25.3473L23.7291 17.9335L31.6451 10.0176C31.7763 9.88634 31.85 9.70841 31.85 9.52289C31.85 9.33733 31.7763 9.15944 31.6451 9.02823L26.8389 4.22209C26.5658 3.94888 26.1228 3.94886 25.8496 4.22209L17.9336 12.138L11.554 5.75853C11.5532 5.75769 11.5524 5.75689 11.5517 5.75616C11.4767 5.68168 11.3767 5.6214 11.2799 5.58888C11.2799 5.58886 11.28 5.5889 11.2799 5.58888L4.07088 3.18589C4.07087 3.18589 4.07088 3.18589 4.07088 3.18589M4.95578 4.95577L9.76371 6.55835L6.55842 9.76365L4.95578 4.95577ZM5.43012 5.4301L9.20833 6.68946L6.68953 9.20828L5.43012 5.4301ZM26.3442 5.70614L30.161 9.52283L27.5458 12.1381L26.8389 11.4312C26.5658 11.158 26.1228 11.158 25.8496 11.4312C25.5764 11.7044 25.5764 12.1474 25.8496 12.4206L26.5564 13.1274L25.1428 14.541L24.4359 13.8342C24.1628 13.561 23.7198 13.561 23.4465 13.8342C23.1733 14.1074 23.1733 14.5504 23.4465 14.8236L24.1534 15.5304L22.7397 16.9441L18.923 13.1274L26.3442 5.70614ZM26.3442 6.13041L19.3473 13.1274L22.7397 16.5198L23.7291 15.5304L23.2344 15.0357C22.844 14.6453 22.844 14.0124 23.2344 13.6221C23.6248 13.2317 24.2577 13.2317 24.6481 13.6221L25.1428 14.1168L26.1321 13.1274L25.6374 12.6327C25.2471 12.2424 25.2471 11.6095 25.6374 11.2191C26.0278 10.8287 26.6608 10.8288 27.0511 11.2191L27.5458 11.7138L29.7367 9.52284L26.3442 6.13041ZM11.1649 7.34808L11.0588 7.45414C11.1649 7.34808 11.1648 7.34803 11.1649 7.34808L17.4367 13.6199C17.4381 13.6212 17.4396 13.6227 17.4412 13.6244L25.4507 21.6338L24.037 23.0476L9.64511 8.65572L11.0588 7.24201L11.1649 7.34808ZM11.0588 7.66628L10.0694 8.65572L24.037 22.6233L25.0264 21.6339L17.2273 13.8348C17.2301 13.8376 17.2324 13.8397 17.234 13.841C17.2345 13.8414 17.2349 13.8418 17.2352 13.8421L17.236 13.8428M17.2273 13.8348C17.2272 13.8347 17.2275 13.835 17.2273 13.8348C17.2301 13.8376 17.2324 13.8397 17.234 13.841L17.2273 13.8348ZM17.2273 13.8348C17.2272 13.8347 17.2275 13.835 17.2273 13.8348V13.8348ZM17.2098 13.8173L17.2273 13.8348L17.2098 13.8173ZM11.0588 7.66628L17.2098 13.8173L11.0588 7.66628ZM8.65572 9.64505L23.0476 24.037L21.6339 25.4506L7.24208 11.0588L8.65572 9.64505ZM8.65573 10.0693L22.6233 24.037L21.6339 25.0264L7.66634 11.0588L8.65573 10.0693ZM13.1276 18.923L16.9443 22.7397L15.5305 24.1534L14.8237 23.4465C14.5505 23.1733 14.1075 23.1733 13.8343 23.4465C13.5611 23.7197 13.5611 24.1627 13.8343 24.4359L14.5411 25.1428L13.1275 26.5564L12.4207 25.8496C12.1475 25.5764 11.7045 25.5764 11.4313 25.8496C11.1581 26.1228 11.1581 26.5658 11.4313 26.839L12.1382 27.5459L9.52295 30.161L5.70627 26.3443L13.1276 18.923ZM11.5464 5.75029C11.5461 5.74989 11.5463 5.75017 11.5464 5.75029V5.75029ZM6.13053 26.3443L9.52295 29.7368L11.7139 27.5459L11.2192 27.0511C10.8288 26.6608 10.8288 26.0279 11.2192 25.6375C11.6095 25.2472 12.2424 25.2471 12.6328 25.6375L13.1275 26.1322L14.1169 25.1428L13.6222 24.648C13.2318 24.2577 13.2318 23.6248 13.6222 23.2344C14.0125 22.844 14.6455 22.844 15.0358 23.2344L15.5305 23.7291L16.52 22.7397L13.1276 19.3472L6.13053 26.3443ZM26.44 22.6233L27.8537 24.037L24.0369 27.8537L22.6233 26.4401L26.44 22.6233ZM26.44 23.0475L23.0475 26.4401L24.0369 27.4295L27.4294 24.037L26.44 23.0475ZM28.8431 25.0264L30.1536 26.3368C30.543 26.7262 30.5465 27.3519 30.1549 27.7435C30.1549 27.7435 30.1549 27.7435 30.1549 27.7435L27.7436 30.1549C27.3534 30.5452 26.7248 30.5415 26.3341 30.1508L25.0264 28.8431L28.8431 25.0264ZM25.4506 28.8431L26.5462 29.9387C26.8213 30.2137 27.2598 30.2144 27.5315 29.9428L29.9427 27.5313C30.2163 27.2578 30.2146 26.8221 29.9414 26.5489L28.8431 25.4506L25.4506 28.8431Z" fill="#333333"/>
</svg>
