<svg width="35" height="35" viewBox="0 0 35 35" fill="none" xmlns="http://www.w3.org/2000/svg">
<path d="M30.6317 18.4535C30.2711 18.4535 29.9254 18.5967 29.6705 18.8516C29.4156 19.1065 29.2724 19.4523 29.2724 19.8128V25.2845C29.2712 26.3413 28.8508 27.3545 28.1035 28.1018C27.3563 28.849 26.3431 29.2694 25.2863 29.2706H9.71561C8.6588 29.2694 7.64561 28.849 6.89833 28.1018C6.15105 27.3545 5.7307 26.3413 5.7295 25.2845V9.71384C5.7307 8.65703 6.15105 7.64384 6.89833 6.89656C7.64561 6.14928 8.6588 5.72893 9.71561 5.72773H15.1873C15.5478 5.72773 15.8936 5.58452 16.1485 5.3296C16.4034 5.07469 16.5466 4.72895 16.5466 4.36844C16.5466 4.00794 16.4034 3.6622 16.1485 3.40728C15.8936 3.15237 15.5478 3.00916 15.1873 3.00916H9.71561C7.93806 3.01125 6.23392 3.71831 4.977 4.97523C3.72008 6.23215 3.01302 7.93629 3.01093 9.71384V25.2845C3.01302 27.062 3.72008 28.7662 4.977 30.0231C6.23392 31.28 7.93806 31.9871 9.71561 31.9892H25.2863C27.0638 31.9871 28.7679 31.28 30.0249 30.0231C31.2818 28.7662 31.9888 27.062 31.9909 25.2845V19.8128C31.9909 19.4523 31.8477 19.1065 31.5928 18.8516C31.3379 18.5967 30.9922 18.4535 30.6317 18.4535Z" fill="#333333"/>
<path d="M30.6028 3H22.1525C21.7966 2.99993 21.4548 3.13948 21.2007 3.38867C20.9465 3.63786 20.8002 3.9768 20.7932 4.33267C20.7791 5.09557 21.4208 5.71858 22.1831 5.71858H27.3558L16.5302 16.5476C16.2753 16.8025 16.1321 17.1482 16.1321 17.5087C16.1321 17.8692 16.2753 18.2149 16.5302 18.4698C16.7851 18.7247 17.1308 18.8679 17.4913 18.8679C17.8518 18.8679 18.1975 18.7247 18.4524 18.4698L29.2814 7.64423V12.8356C29.2814 13.1961 29.4246 13.5418 29.6796 13.7967C29.9345 14.0517 30.2802 14.1949 30.6407 14.1949C31.0012 14.1949 31.347 14.0517 31.6019 13.7967C31.8568 13.5418 32 13.1961 32 12.8356V4.39667C32 4.21321 31.9639 4.03154 31.8936 3.86206C31.8234 3.69257 31.7205 3.53857 31.5907 3.40887C31.461 3.27917 31.3069 3.17631 31.1374 3.10615C30.9679 3.036 30.7862 2.99993 30.6028 3Z" fill="#333333"/>
</svg>
