<svg width="35" height="35" viewBox="0 0 35 35" fill="none" xmlns="http://www.w3.org/2000/svg">
<path d="M28.4038 5.03849H22.6923V4.00003C22.6923 2.28222 21.2947 0.884644 19.5769 0.884644H15.4231C13.7053 0.884644 12.3077 2.28222 12.3077 4.00003V5.03849H6.59615C5.16463 5.03849 4 6.20312 4 7.63464V11.2693C4 11.8427 4.46497 12.3077 5.03846 12.3077H5.60598L6.50315 31.1482C6.58239 32.8121 7.94927 34.1154 9.61496 34.1154H25.385C27.0508 34.1154 28.4177 32.8121 28.4969 31.1482L29.394 12.3077H29.9615C30.535 12.3077 31 11.8427 31 11.2693V7.63464C31 6.20312 29.8354 5.03849 28.4038 5.03849ZM14.3846 4.00003C14.3846 3.42745 14.8505 2.96157 15.4231 2.96157H19.5769C20.1495 2.96157 20.6154 3.42745 20.6154 4.00003V5.03849H14.3846V4.00003ZM6.07692 7.63464C6.07692 7.34835 6.30986 7.11541 6.59615 7.11541H28.4038C28.6901 7.11541 28.9231 7.34835 28.9231 7.63464V10.2308C28.603 10.2308 7.4031 10.2308 6.07692 10.2308V7.63464ZM26.4223 31.0494C26.3959 31.604 25.9402 32.0385 25.385 32.0385H9.61496C9.05971 32.0385 8.60408 31.604 8.57773 31.0494L7.68524 12.3077H27.3148L26.4223 31.0494Z" fill="#333333"/>
<path fill-rule="evenodd" clip-rule="evenodd" d="M12.1577 4C12.1577 2.19935 13.6224 0.734619 15.4231 0.734619H19.5769C21.3776 0.734619 22.8423 2.19935 22.8423 4V4.88847H28.4039C29.9182 4.88847 31.15 6.12026 31.15 7.63462V11.2692C31.15 11.9256 30.6179 12.4577 29.9615 12.4577H29.5371L28.6467 31.1553C28.5637 32.8992 27.1309 34.2654 25.385 34.2654H9.61497C7.8692 34.2654 6.43638 32.8992 6.35332 31.1553L5.46296 12.4577H5.03847C4.38213 12.4577 3.85001 11.9256 3.85001 11.2692V7.63462C3.85001 6.12026 5.0818 4.88847 6.59616 4.88847H12.1577V4ZM15.4231 1.03462C13.7881 1.03462 12.4577 2.36504 12.4577 4V5.18847H6.59616C5.24748 5.18847 4.15001 6.28594 4.15001 7.63462V11.2692C4.15001 11.7599 4.54782 12.1577 5.03847 12.1577H5.74901L6.65298 31.141C6.72842 32.7249 8.02935 33.9654 9.61497 33.9654H25.385C26.9707 33.9654 28.2717 32.7249 28.347 31.141L29.251 12.1577H29.9615C30.4522 12.1577 30.85 11.7599 30.85 11.2692V7.63462C30.85 6.28594 29.7525 5.18847 28.4039 5.18847H22.5423V4C22.5423 2.36504 21.2119 1.03462 19.5769 1.03462H15.4231ZM15.4231 3.11154C14.9333 3.11154 14.5346 3.51026 14.5346 4V4.88847H20.4654V4C20.4654 3.51026 20.0667 3.11154 19.5769 3.11154H15.4231ZM14.2346 4C14.2346 3.34458 14.7677 2.81154 15.4231 2.81154H19.5769C20.2324 2.81154 20.7654 3.34458 20.7654 4V5.18847H14.2346V4ZM6.59616 7.26539C6.39271 7.26539 6.22693 7.43117 6.22693 7.63462V10.0808H28.7731V7.63462C28.7731 7.43117 28.6073 7.26539 28.4039 7.26539H6.59616ZM5.92693 7.63462C5.92693 7.26549 6.22703 6.96539 6.59616 6.96539H28.4039C28.773 6.96539 29.0731 7.26549 29.0731 7.63462V10.3808H5.92693V7.63462ZM7.52793 12.1577H27.4721L26.5721 31.0565C26.5419 31.6911 26.0203 32.1885 25.385 32.1885H9.61497C8.97965 32.1885 8.45806 31.6911 8.42791 31.0565L7.52793 12.1577ZM7.84256 12.4577L8.72757 31.0423C8.75012 31.5169 9.13978 31.8885 9.61497 31.8885H25.385C25.8602 31.8885 26.2498 31.5169 26.2724 31.0423L27.1575 12.4577H7.84256Z" fill="#333333"/>
<path d="M17.5 29.9616C18.0735 29.9616 18.5385 29.4966 18.5385 28.9231V15.4231C18.5385 14.8496 18.0735 14.3846 17.5 14.3846C16.9265 14.3846 16.4615 14.8496 16.4615 15.4231V28.9231C16.4615 29.4966 16.9265 29.9616 17.5 29.9616Z" fill="#333333"/>
<path fill-rule="evenodd" clip-rule="evenodd" d="M16.3115 15.4231C16.3115 14.7667 16.8437 14.2346 17.5 14.2346C18.1563 14.2346 18.6885 14.7667 18.6885 15.4231V28.9231C18.6885 29.5794 18.1563 30.1115 17.5 30.1115C16.8436 30.1115 16.3115 29.5794 16.3115 28.9231V15.4231ZM17.5 14.5346C17.0094 14.5346 16.6115 14.9324 16.6115 15.4231V28.9231C16.6115 29.4137 17.0093 29.8115 17.5 29.8115C17.9906 29.8115 18.3885 29.4137 18.3885 28.9231V15.4231C18.3885 14.9324 17.9906 14.5346 17.5 14.5346Z" fill="#333333"/>
<path d="M22.6923 29.9616C23.2658 29.9616 23.7308 29.4966 23.7308 28.9231V15.4231C23.7308 14.8496 23.2658 14.3846 22.6923 14.3846C22.1188 14.3846 21.6539 14.8496 21.6539 15.4231V28.9231C21.6539 29.4966 22.1188 29.9616 22.6923 29.9616Z" fill="#333333"/>
<path fill-rule="evenodd" clip-rule="evenodd" d="M21.5038 15.4231C21.5038 14.7667 22.036 14.2346 22.6923 14.2346C23.3486 14.2346 23.8808 14.7667 23.8808 15.4231V28.9231C23.8808 29.5794 23.3486 30.1115 22.6923 30.1115C22.0359 30.1115 21.5038 29.5794 21.5038 28.9231V15.4231ZM22.6923 14.5346C22.2017 14.5346 21.8038 14.9324 21.8038 15.4231V28.9231C21.8038 29.4137 22.2016 29.8115 22.6923 29.8115C23.183 29.8115 23.5808 29.4137 23.5808 28.9231V15.4231C23.5808 14.9324 23.183 14.5346 22.6923 14.5346Z" fill="#333333"/>
<path d="M12.3077 29.9616C12.8812 29.9616 13.3462 29.4966 13.3462 28.9231V15.4231C13.3462 14.8496 12.8812 14.3846 12.3077 14.3846C11.7342 14.3846 11.2692 14.8496 11.2692 15.4231V28.9231C11.2692 29.4966 11.7341 29.9616 12.3077 29.9616Z" fill="#333333"/>
<path fill-rule="evenodd" clip-rule="evenodd" d="M11.1192 15.4231C11.1192 14.7667 11.6514 14.2346 12.3077 14.2346C12.964 14.2346 13.4962 14.7667 13.4962 15.4231V28.9231C13.4962 29.5794 12.964 30.1115 12.3077 30.1115C11.6513 30.1115 11.1192 29.5794 11.1192 28.9231V15.4231ZM12.3077 14.5346C11.817 14.5346 11.4192 14.9324 11.4192 15.4231V28.9231C11.4192 29.4137 11.817 29.8115 12.3077 29.8115C12.7983 29.8115 13.1962 29.4137 13.1962 28.9231V15.4231C13.1962 14.9324 12.7983 14.5346 12.3077 14.5346Z" fill="#333333"/>
</svg>
