<svg width="100" height="100" viewBox="0 0 100 100" fill="none" xmlns="http://www.w3.org/2000/svg">
<g clip-path="url(#clip0_92_293)">
<g clip-path="url(#clip1_92_293)">
<path d="M109.194 124.518C109.883 123.537 110.829 123.295 111.621 122.861C116.373 120.287 121.15 117.764 125.889 115.177C134.231 110.628 135.815 99.0949 128.764 92.7359C124.701 89.0786 120.205 85.931 115.862 82.5922C115.07 81.9805 114.635 81.6365 115.517 80.617C119.911 75.4814 119.17 68.9568 113.779 64.828C110.382 62.2283 106.945 59.7051 103.535 57.1437C103.011 56.7487 102.5 56.3409 101.899 55.8694C102.589 55.2577 103.254 55.6273 103.841 55.6782C130.258 58.0612 156.65 60.7628 183.105 62.7126C191.587 63.337 198.204 73.4935 194.896 81.4326C192.635 86.8612 192.75 86.9504 187.269 85.1154C167.865 78.6035 148.449 72.1299 129.032 65.6435C126.924 64.9427 125.212 65.6435 124.548 67.3766C123.858 69.2117 124.714 70.8938 126.988 71.6839C133.235 73.8375 139.494 75.9019 145.766 77.9919C156.075 81.4326 166.371 84.8988 176.705 88.2885C178.353 88.8237 178.251 89.3589 177.063 90.251C175.99 91.0538 174.942 91.8694 173.844 92.634C171.864 94.023 171.289 95.7434 172.324 97.3745C173.397 99.0566 175.313 99.2988 177.408 97.948C179.784 96.4315 181.943 94.6474 183.757 92.4938C184.612 91.4871 185.456 91.194 186.72 91.691C188.394 92.3536 190.131 92.8506 191.843 93.4113C193.286 93.8828 194.717 93.8191 195.688 92.5575C200.312 86.5427 203.505 79.9926 201.717 72.1427C200.12 65.172 195.522 60.4315 189.288 57.2966C187.448 56.3791 185.226 56.6722 183.182 56.4811C152.651 53.6775 122.108 50.9504 91.5907 48.1087C88.5249 47.8283 85.4974 47.5097 82.4316 47.9175C80.9626 48.1087 80.7071 47.6117 81.052 46.2481C82.1506 41.9791 83.1342 37.6719 84.1817 33.3901C86.1361 25.349 82.3678 19.092 74.3839 16.9002C68.0223 15.1543 61.6991 13.2428 55.3503 11.4078C52.0674 10.4648 50.8155 11.051 49.7169 14.275C48.0435 19.2067 46.8938 24.1894 48.8738 29.3377C48.976 29.5798 49.0271 29.8857 49.1932 30.0641C51.7225 32.6127 50.8666 35.3781 49.7552 38.1688C47.8136 43.0878 48.6694 47.3058 52.7572 50.7975C53.8174 51.7023 54.6733 52.8492 55.708 53.7922C57.1898 55.1303 58.9527 55.1175 60.1918 53.8814C61.4692 52.6071 61.5458 50.8995 60.2428 49.4085C59.1059 48.0959 57.8924 46.8471 56.6277 45.6747C55.2226 44.3876 54.8138 42.9731 55.4908 41.1763C56.0146 39.8 56.0657 38.0414 56.9982 37.0984C57.969 36.1172 59.6041 37.3023 60.9837 37.3278C63.0532 37.3533 65.1226 37.5062 67.1537 37.0474C69.2359 36.5759 70.3089 35.1232 70.0279 33.3519C69.7468 31.5168 68.1756 30.4209 65.9912 30.714C64.2028 30.9688 62.4145 31.109 60.6133 30.8542C56.219 30.217 54.0346 27.5664 54.239 23.1317C54.4689 18.0088 54.6094 17.8942 59.4125 19.2577C64.0368 20.5703 68.6483 21.8956 73.247 23.2591C77.4369 24.508 79.0337 27.2096 78.0373 31.5041C76.6066 37.7611 75.0609 43.9798 73.5791 50.2241C72.736 53.7412 74.2434 55.5126 77.8712 55.1048C80.1195 54.8627 82.355 54.4294 84.5905 54.0981C86.9409 53.754 89.0742 54.2127 91.0031 55.6655C97.288 60.406 103.611 65.0956 109.883 69.8489C112.86 72.1044 112.77 75.1883 109.628 77.2273C101.018 82.8343 92.3699 88.3777 83.7218 93.9211C82.125 94.9405 80.4005 95.3483 78.6249 94.3671C77.1048 93.526 76.6449 92.0733 76.6449 90.4676C76.6449 88.5434 77.9351 87.4984 79.3914 86.5809C84.6543 83.2931 89.9045 79.9926 95.1547 76.692C98.757 74.4237 98.8209 72.3338 95.423 69.8106C93.443 68.3451 91.5013 66.8032 89.4958 65.3759C87.5924 64.0124 85.6124 64.1781 84.5138 65.6818C83.4025 67.1855 83.8623 68.9823 85.7401 70.4988C88.8954 73.0474 88.9081 73.0602 85.4847 75.252C81.8951 77.5586 78.2034 79.7122 74.6777 82.1335C70.871 84.7458 69.3381 89.3207 70.5389 93.6152C71.7652 97.9862 75.5974 101.096 80.1834 101.389C82.5849 101.542 84.7821 100.892 86.8132 99.5791C93.4174 95.2973 100.073 91.092 106.626 86.7338C108.261 85.6506 109.398 85.5232 110.982 86.823C115.07 90.149 119.336 93.2457 123.488 96.508C128.419 100.382 127.831 106.868 122.313 109.863C115.453 113.571 108.568 117.254 101.695 120.937C100.252 121.714 98.8592 122.517 98.8976 124.467C98.9359 126.404 100.341 127.168 101.797 127.933C109.551 131.96 117.305 136 125.059 140.027C126.733 140.893 128.15 141.976 128.125 144.092C128.087 147.379 124.97 149.227 121.853 147.698C117.714 145.685 113.652 143.531 109.551 141.416C102.321 137.695 95.0781 133.973 87.8479 130.227C82.4189 127.411 82.1506 121.816 87.3497 118.567C93.4047 114.782 99.5235 111.112 105.604 107.391C106.166 107.047 106.754 106.703 107.265 106.282C108.721 105.097 109.066 103.377 108.159 102.013C107.188 100.56 105.374 100.089 103.765 101.045C99.6385 103.491 95.5507 106.015 91.4502 108.525C88.7804 110.156 86.0723 111.749 83.4536 113.482C74.7416 119.242 75.2781 130.8 84.501 135.694C90.6327 138.943 96.8409 142.04 103.011 145.213C108.478 148.017 113.882 150.922 119.413 153.573C125.276 156.389 131.855 153.535 133.924 147.532C135.611 142.613 133.631 137.542 128.687 134.789C123.858 132.087 118.889 129.641 113.971 127.067C112.387 126.238 110.816 125.397 109.181 124.543L109.194 124.518Z" fill="black"/>
<path d="M7.10221 36.9073C7.80479 40.9851 9.46544 43.2917 12.1352 44.8846C30.4023 55.7802 48.695 66.663 66.9621 77.5458C67.703 77.9919 68.4567 78.4379 69.2487 78.7947C70.8071 79.4956 72.174 79.1388 73.1065 77.737C74.0901 76.2588 73.8857 74.755 72.5572 73.5826C71.7141 72.8435 70.6794 72.3338 69.6958 71.7603C52.2845 61.3873 34.8605 51.0142 17.4365 40.6411C16.8106 40.2715 16.1847 39.8765 15.5843 39.4559C13.3743 37.9522 12.825 36.1427 13.9364 34.1802C14.9711 32.3579 17.1683 31.8481 19.3399 33.097C23.2616 35.3526 27.1449 37.7228 31.041 40.0294C33.8003 41.6605 36.534 43.3299 39.3187 44.8846C41.2604 45.9805 42.8955 45.611 43.8536 44.0308C44.8244 42.4379 44.3262 40.5264 42.474 39.4177C35.6142 35.3016 28.7672 31.16 21.8053 27.1968C18.1774 25.1324 14.4346 25.4892 11.0878 27.9869C7.81757 30.4464 6.62957 33.8361 7.10221 36.9073Z" fill="black"/>
</g>
</g>
<defs>
<clipPath id="clip0_92_293">
<rect width="100" height="100" fill="white"/>
</clipPath>
<clipPath id="clip1_92_293">
<rect width="198" height="144" fill="white" transform="translate(7 11)"/>
</clipPath>
</defs>
</svg>
